<?xml version="1.0" encoding="utf-8"?>
<!-- Generator: Adobe Illustrator 24.2.3, SVG Export Plug-In . SVG Version: 6.00 Build 0)  -->
<svg version="1.1" id="Layer_1" xmlns="http://www.w3.org/2000/svg" xmlns:xlink="http://www.w3.org/1999/xlink" x="0px" y="0px"
	 viewBox="0 0 393.5 470.5" style="enable-background:new 0 0 393.5 470.5;" xml:space="preserve">
<style type="text/css">
	.st0{fill:none;}
	.st1{fill-rule:evenodd;clip-rule:evenodd;fill:#F2F2F2;}
	.st2{fill:none;stroke:#7F7F7F;stroke-linejoin:round;stroke-miterlimit:10;}
	.st3{fill-rule:evenodd;clip-rule:evenodd;fill:#FFFFFF;}
	.st4{fill:none;stroke:#999999;stroke-linejoin:round;stroke-miterlimit:10;}
	.st5{fill-rule:evenodd;clip-rule:evenodd;fill:#B6D7A8;}
	.st6{fill-rule:evenodd;clip-rule:evenodd;fill:#C9DAF8;}
	.st7{fill-rule:evenodd;clip-rule:evenodd;fill-opacity:0;}
	.st8{fill:#595959;}
	.st9{fill:none;stroke:#434343;stroke-linejoin:round;stroke-miterlimit:10;}
	.st10{fill-rule:evenodd;clip-rule:evenodd;fill:#7F7F7F;}
	.st11{fill:#F2F2F2;}
</style>
<g>
	<g>
		<path class="st0" d="M-98.3,512.5h960v-540"/>
		<path class="st1" d="M0.5,367.2L0.5,367.2c0-9.1,7.4-16.5,16.5-16.5h359.6c4.4,0,8.6,1.7,11.6,4.8s4.8,7.3,4.8,11.6V447
			c0,9.1-7.4,16.5-16.5,16.5H17c-9.1,0-16.5-7.4-16.5-16.5L0.5,367.2z"/>
		<path class="st2" d="M0.5,367.2L0.5,367.2c0-9.1,7.4-16.5,16.5-16.5h359.6c4.4,0,8.6,1.7,11.6,4.8s4.8,7.3,4.8,11.6V447
			c0,9.1-7.4,16.5-16.5,16.5H17c-9.1,0-16.5-7.4-16.5-16.5L0.5,367.2z"/>
		<path class="st1" d="M0.5,118.5L0.5,118.5c0-9.1,7.4-16.5,16.5-16.5h359.6c4.4,0,8.6,1.7,11.6,4.8s4.8,7.3,4.8,11.6v79.9
			c0,9.1-7.4,16.5-16.5,16.5H17c-9.1,0-16.5-7.4-16.5-16.5L0.5,118.5z"/>
		<path class="st2" d="M0.5,118.5L0.5,118.5c0-9.1,7.4-16.5,16.5-16.5h359.6c4.4,0,8.6,1.7,11.6,4.8s4.8,7.3,4.8,11.6v79.9
			c0,9.1-7.4,16.5-16.5,16.5H17c-9.1,0-16.5-7.4-16.5-16.5L0.5,118.5z"/>
		<path class="st1" d="M0.5,241.7L0.5,241.7c0-9.1,7.4-16.5,16.5-16.5h359.6c4.4,0,8.6,1.7,11.6,4.8c3.1,3.1,4.8,7.3,4.8,11.6v79.9
			c0,9.1-7.4,16.5-16.5,16.5H17c-9.1,0-16.5-7.4-16.5-16.5L0.5,241.7z"/>
		<path class="st2" d="M0.5,241.7L0.5,241.7c0-9.1,7.4-16.5,16.5-16.5h359.6c4.4,0,8.6,1.7,11.6,4.8c3.1,3.1,4.8,7.3,4.8,11.6v79.9
			c0,9.1-7.4,16.5-16.5,16.5H17c-9.1,0-16.5-7.4-16.5-16.5L0.5,241.7z"/>
		<path class="st3" d="M100.8,249.2L100.8,249.2c0-8.4,6.8-15.1,15.1-15.1h68.9c4,0,7.9,1.6,10.7,4.4c2.8,2.8,4.4,6.7,4.4,10.7v60.5
			c0,8.4-6.8,15.1-15.1,15.1H116c-8.4,0-15.1-6.8-15.1-15.1V249.2z"/>
		<path class="st4" d="M100.8,249.2L100.8,249.2c0-8.4,6.8-15.1,15.1-15.1h68.9c4,0,7.9,1.6,10.7,4.4c2.8,2.8,4.4,6.7,4.4,10.7v60.5
			c0,8.4-6.8,15.1-15.1,15.1H116c-8.4,0-15.1-6.8-15.1-15.1V249.2z"/>
		<path class="st5" d="M250.9,249.4L250.9,249.4c0-8.4,6.8-15.1,15.1-15.1H335c4,0,7.9,1.6,10.7,4.4c2.8,2.8,4.4,6.7,4.4,10.7v60.5
			c0,8.4-6.8,15.1-15.1,15.1H266c-8.4,0-15.1-6.8-15.1-15.1V249.4z"/>
		<path class="st5" d="M100.8,126.8L100.8,126.8c0-8.4,6.8-15.1,15.1-15.1h68.9c4,0,7.9,1.6,10.7,4.4c2.8,2.8,4.4,6.7,4.4,10.7v60.5
			c0,8.4-6.8,15.1-15.1,15.1H116c-8.4,0-15.1-6.8-15.1-15.1V126.8z"/>
		<path class="st6" d="M251,128.2L251,128.2c0-8.4,6.8-15.1,15.1-15.1H335c4,0,7.9,1.6,10.7,4.4c2.8,2.8,4.4,6.7,4.4,10.7v60.5
			c0,8.4-6.8,15.1-15.1,15.1h-68.9c-8.4,0-15.1-6.8-15.1-15.1V128.2z"/>
		<path class="st3" d="M171.3,375.4L171.3,375.4c0-8.4,6.8-15.1,15.1-15.1h68.9c4,0,7.9,1.6,10.7,4.4c2.8,2.8,4.4,6.7,4.4,10.7V436
			c0,8.4-6.8,15.1-15.1,15.1h-68.9c-8.4,0-15.1-6.8-15.1-15.1V375.4z"/>
		<path class="st4" d="M171.3,375.4L171.3,375.4c0-8.4,6.8-15.1,15.1-15.1h68.9c4,0,7.9,1.6,10.7,4.4c2.8,2.8,4.4,6.7,4.4,10.7V436
			c0,8.4-6.8,15.1-15.1,15.1h-68.9c-8.4,0-15.1-6.8-15.1-15.1V375.4z"/>
		<path class="st7" d="M188.3,364.7h69.4v52.7h-69.4V364.7z"/>
		<g transform="matrix(0.22838106464566926 0.0 0.0 0.2010979002624672 286.62076304656165 392.18766404199476)">
			<g>
				<defs>
					<rect id="SVGID_1_" x="-313.1" y="-32.2" width="69.4" height="52.7"/>
				</defs>
				<clipPath id="SVGID_2_">
					<use xlink:href="#SVGID_1_"  style="overflow:visible;"/>
				</clipPath>
				<g style="clip-path:url(#SVGID_2_);enable-background:new    ;">
					
						<image style="overflow:visible;" width="304" height="262" xlink:href="C2F20A8830E5D7C5.png"  transform="matrix(1 0 0 1 -430.3429 -136.8744)">
					</image>
				</g>
			</g>
		</g>
		<path class="st7" d="M160.4,407.3h121.9v44.4H160.4V407.3z"/>
		<path class="st8" d="M180,429.2v-7.6h1v7.6H180z M182.8,429.2v-7.6h1l4,6v-6h1v7.6h-1l-4-6v6H182.8z M192.4,429.2v-6.7h-2.5v-0.9
			h6v0.9h-2.5v6.7H192.4z M197,429.2v-7.6h5.5v0.9H198v2.3h4.2v0.9H198v2.6h4.7v0.9H197z M204.1,429.2v-7.6h3.4
			c0.7,0,1.2,0.1,1.5,0.2c0.4,0.1,0.6,0.4,0.8,0.7c0.2,0.3,0.3,0.7,0.3,1.1c0,0.5-0.2,1-0.5,1.4c-0.3,0.4-0.9,0.6-1.6,0.7
			c0.3,0.1,0.5,0.2,0.6,0.4c0.3,0.3,0.6,0.6,0.8,1l1.3,2.1h-1.3l-1-1.6c-0.3-0.5-0.5-0.8-0.7-1c-0.2-0.2-0.4-0.4-0.5-0.5
			c-0.1-0.1-0.3-0.2-0.5-0.2c-0.1,0-0.3,0-0.6,0h-1.2v3.4H204.1z M205.1,425h2.2c0.5,0,0.8,0,1.1-0.1c0.3-0.1,0.5-0.2,0.6-0.5
			c0.1-0.2,0.2-0.4,0.2-0.7c0-0.4-0.1-0.7-0.4-0.9c-0.3-0.2-0.7-0.3-1.2-0.3h-2.4V425z M211.8,429.2v-7.6h1l4,6v-6h1v7.6h-1l-4-6v6
			H211.8z M218.6,429.2l2.9-7.6h1.1l3.1,7.6h-1.2l-0.9-2.3h-3.2l-0.8,2.3H218.6z M220.8,426.1h2.6l-0.8-2.1
			c-0.2-0.6-0.4-1.2-0.5-1.6c-0.1,0.5-0.2,1-0.4,1.5L220.8,426.1z M226.5,429.2v-7.6h1v6.7h3.8v0.9H226.5z"/>
		<path class="st8" d="M237.7,429.2v-7.6h2.6c0.6,0,1,0,1.4,0.1c0.4,0.1,0.8,0.3,1.1,0.5c0.4,0.3,0.7,0.8,0.9,1.3
			c0.2,0.5,0.3,1.1,0.3,1.8c0,0.6-0.1,1.1-0.2,1.5c-0.1,0.4-0.3,0.8-0.5,1.1c-0.2,0.3-0.4,0.5-0.7,0.7c-0.2,0.2-0.6,0.3-0.9,0.4
			c-0.4,0.1-0.8,0.1-1.2,0.1H237.7z M238.7,428.3h1.6c0.5,0,0.9,0,1.2-0.1c0.3-0.1,0.5-0.2,0.7-0.4c0.2-0.2,0.4-0.6,0.6-1
			c0.1-0.4,0.2-0.9,0.2-1.5c0-0.8-0.1-1.4-0.4-1.8c-0.3-0.4-0.6-0.7-1-0.9c-0.3-0.1-0.7-0.2-1.3-0.2h-1.6V428.3z M244.6,429.2
			l2.9-7.6h1.1l3.1,7.6h-1.2l-0.9-2.3h-3.2l-0.8,2.3H244.6z M246.8,426.1h2.6l-0.8-2.1c-0.2-0.6-0.4-1.2-0.5-1.6
			c-0.1,0.5-0.2,1-0.4,1.5L246.8,426.1z M253.7,429.2v-6.7h-2.5v-0.9h6v0.9h-2.5v6.7H253.7z M256.6,429.2l2.9-7.6h1.1l3.1,7.6h-1.2
			l-0.9-2.3h-3.2l-0.8,2.3H256.6z M258.8,426.1h2.6l-0.8-2.1c-0.2-0.6-0.4-1.2-0.5-1.6c-0.1,0.5-0.2,1-0.4,1.5L258.8,426.1z"/>
		<path class="st8" d="M185.4,441.1l1-0.1c0,0.4,0.1,0.7,0.3,0.9c0.2,0.2,0.4,0.4,0.8,0.6c0.3,0.1,0.7,0.2,1.2,0.2
			c0.4,0,0.7-0.1,1-0.2c0.3-0.1,0.5-0.3,0.7-0.5c0.1-0.2,0.2-0.4,0.2-0.7c0-0.2-0.1-0.4-0.2-0.6c-0.1-0.2-0.4-0.3-0.7-0.4
			c-0.2-0.1-0.7-0.2-1.4-0.4c-0.7-0.2-1.2-0.3-1.5-0.5c-0.4-0.2-0.6-0.4-0.8-0.7c-0.2-0.3-0.3-0.6-0.3-1c0-0.4,0.1-0.7,0.3-1.1
			c0.2-0.3,0.5-0.6,1-0.8c0.4-0.2,0.9-0.3,1.4-0.3c0.6,0,1.1,0.1,1.5,0.3c0.4,0.2,0.8,0.4,1,0.8c0.2,0.4,0.4,0.8,0.4,1.2l-1,0.1
			c-0.1-0.5-0.2-0.8-0.5-1.1c-0.3-0.3-0.7-0.4-1.3-0.4c-0.6,0-1.1,0.1-1.3,0.3c-0.3,0.2-0.4,0.5-0.4,0.8c0,0.3,0.1,0.5,0.3,0.7
			c0.2,0.2,0.7,0.4,1.5,0.5c0.8,0.2,1.4,0.3,1.7,0.5c0.4,0.2,0.8,0.5,1,0.8c0.2,0.3,0.3,0.7,0.3,1.1c0,0.4-0.1,0.8-0.3,1.2
			c-0.2,0.4-0.6,0.6-1,0.8c-0.4,0.2-0.9,0.3-1.5,0.3c-0.7,0-1.3-0.1-1.8-0.3c-0.5-0.2-0.8-0.5-1.1-0.9
			C185.6,442.1,185.4,441.6,185.4,441.1z M194.8,443.5v-6.7h-2.5v-0.9h6v0.9h-2.5v6.7H194.8z M199.4,443.5v-7.6h3.4
			c0.7,0,1.2,0.1,1.5,0.2c0.4,0.1,0.6,0.4,0.8,0.7c0.2,0.3,0.3,0.7,0.3,1.1c0,0.5-0.2,1-0.5,1.4c-0.3,0.4-0.9,0.6-1.6,0.7
			c0.3,0.1,0.5,0.2,0.6,0.4c0.3,0.3,0.6,0.6,0.8,1l1.3,2.1h-1.3l-1-1.6c-0.3-0.5-0.5-0.8-0.7-1c-0.2-0.2-0.4-0.4-0.5-0.5
			c-0.1-0.1-0.3-0.2-0.5-0.2c-0.1,0-0.3,0-0.6,0h-1.2v3.4H199.4z M200.4,439.3h2.2c0.5,0,0.8,0,1.1-0.1c0.3-0.1,0.5-0.2,0.6-0.5
			c0.1-0.2,0.2-0.4,0.2-0.7c0-0.4-0.1-0.7-0.4-0.9c-0.3-0.2-0.7-0.3-1.2-0.3h-2.4V439.3z M212.1,435.9h1v4.4c0,0.8-0.1,1.4-0.3,1.8
			c-0.2,0.4-0.5,0.8-1,1.1c-0.4,0.3-1,0.4-1.8,0.4c-0.7,0-1.3-0.1-1.8-0.4c-0.4-0.3-0.8-0.6-1-1.1c-0.2-0.5-0.3-1.1-0.3-1.9v-4.4h1
			v4.4c0,0.7,0.1,1.1,0.2,1.5c0.1,0.3,0.3,0.6,0.6,0.7c0.3,0.2,0.7,0.2,1.1,0.2c0.7,0,1.3-0.2,1.6-0.5c0.3-0.3,0.5-1,0.5-1.9V435.9z
			 M220.2,440.9l1,0.2c-0.2,0.8-0.6,1.5-1.2,1.9c-0.5,0.4-1.2,0.6-2,0.6c-0.8,0-1.5-0.2-2-0.5c-0.5-0.3-0.9-0.8-1.2-1.5
			c-0.3-0.6-0.4-1.3-0.4-2c0-0.8,0.2-1.5,0.5-2.1c0.3-0.6,0.7-1,1.3-1.3c0.6-0.3,1.2-0.5,1.8-0.5c0.8,0,1.4,0.2,1.9,0.6
			c0.5,0.4,0.9,0.9,1.1,1.6l-1,0.2c-0.2-0.6-0.4-1-0.8-1.2c-0.3-0.3-0.8-0.4-1.3-0.4c-0.6,0-1.1,0.1-1.5,0.4
			c-0.4,0.3-0.7,0.7-0.8,1.1c-0.2,0.5-0.2,1-0.2,1.5c0,0.6,0.1,1.2,0.3,1.7c0.2,0.5,0.5,0.8,0.9,1.1c0.4,0.2,0.8,0.4,1.3,0.4
			c0.6,0,1-0.2,1.4-0.5C219.8,442,220.1,441.5,220.2,440.9z M224.4,443.5v-6.7h-2.5v-0.9h6v0.9h-2.5v6.7H224.4z M234,435.9h1v4.4
			c0,0.8-0.1,1.4-0.3,1.8c-0.2,0.4-0.5,0.8-1,1.1c-0.4,0.3-1,0.4-1.8,0.4c-0.7,0-1.3-0.1-1.8-0.4c-0.4-0.3-0.8-0.6-1-1.1
			c-0.2-0.5-0.3-1.1-0.3-1.9v-4.4h1v4.4c0,0.7,0.1,1.1,0.2,1.5c0.1,0.3,0.3,0.6,0.6,0.7c0.3,0.2,0.7,0.2,1.1,0.2
			c0.7,0,1.3-0.2,1.6-0.5c0.3-0.3,0.5-1,0.5-1.9V435.9z M236.7,443.5v-7.6h3.4c0.7,0,1.2,0.1,1.5,0.2c0.4,0.1,0.6,0.4,0.8,0.7
			c0.2,0.3,0.3,0.7,0.3,1.1c0,0.5-0.2,1-0.5,1.4c-0.3,0.4-0.9,0.6-1.6,0.7c0.3,0.1,0.5,0.2,0.6,0.4c0.3,0.3,0.6,0.6,0.8,1l1.3,2.1
			h-1.3l-1-1.6c-0.3-0.5-0.5-0.8-0.7-1c-0.2-0.2-0.4-0.4-0.5-0.5c-0.1-0.1-0.3-0.2-0.5-0.2c-0.1,0-0.3,0-0.6,0h-1.2v3.4H236.7z
			 M237.7,439.3h2.2c0.5,0,0.8,0,1.1-0.1c0.3-0.1,0.5-0.2,0.6-0.5c0.1-0.2,0.2-0.4,0.2-0.7c0-0.4-0.1-0.7-0.4-0.9
			c-0.3-0.2-0.7-0.3-1.2-0.3h-2.4V439.3z M244.4,443.5v-7.6h5.5v0.9h-4.5v2.3h4.2v0.9h-4.2v2.6h4.7v0.9H244.4z M251.1,441.1l1-0.1
			c0,0.4,0.1,0.7,0.3,0.9c0.2,0.2,0.4,0.4,0.8,0.6c0.3,0.1,0.7,0.2,1.2,0.2c0.4,0,0.7-0.1,1-0.2c0.3-0.1,0.5-0.3,0.7-0.5
			c0.1-0.2,0.2-0.4,0.2-0.7c0-0.2-0.1-0.4-0.2-0.6c-0.1-0.2-0.4-0.3-0.7-0.4c-0.2-0.1-0.7-0.2-1.4-0.4c-0.7-0.2-1.2-0.3-1.5-0.5
			c-0.4-0.2-0.6-0.4-0.8-0.7c-0.2-0.3-0.3-0.6-0.3-1c0-0.4,0.1-0.7,0.3-1.1c0.2-0.3,0.5-0.6,1-0.8c0.4-0.2,0.9-0.3,1.4-0.3
			c0.6,0,1.1,0.1,1.5,0.3c0.4,0.2,0.8,0.4,1,0.8c0.2,0.4,0.4,0.8,0.4,1.2l-1,0.1c-0.1-0.5-0.2-0.8-0.5-1.1c-0.3-0.3-0.7-0.4-1.3-0.4
			c-0.6,0-1.1,0.1-1.3,0.3c-0.3,0.2-0.4,0.5-0.4,0.8c0,0.3,0.1,0.5,0.3,0.7c0.2,0.2,0.7,0.4,1.5,0.5c0.8,0.2,1.4,0.3,1.7,0.5
			c0.4,0.2,0.8,0.5,1,0.8c0.2,0.3,0.3,0.7,0.3,1.1c0,0.4-0.1,0.8-0.3,1.2c-0.2,0.4-0.6,0.6-1,0.8c-0.4,0.2-0.9,0.3-1.5,0.3
			c-0.7,0-1.3-0.1-1.8-0.3c-0.5-0.2-0.8-0.5-1.1-0.9C251.3,442.1,251.2,441.6,251.1,441.1z"/>
		<path class="st7" d="M96.2,290.8h107.4v35.6H96.2V290.8z"/>
		<path class="st8" d="M106.8,305.1l2.9-7.6h1.1l3.1,7.6h-1.2l-0.9-2.3h-3.2l-0.8,2.3H106.8z M109,302h2.6l-0.8-2.1
			c-0.2-0.6-0.4-1.2-0.5-1.6c-0.1,0.5-0.2,1-0.4,1.5L109,302z M119.7,297.5h1v4.4c0,0.8-0.1,1.4-0.3,1.8c-0.2,0.4-0.5,0.8-1,1.1
			c-0.4,0.3-1,0.4-1.8,0.4c-0.7,0-1.3-0.1-1.8-0.4c-0.4-0.2-0.8-0.6-1-1.1c-0.2-0.5-0.3-1.1-0.3-1.9v-4.4h1v4.4
			c0,0.7,0.1,1.1,0.2,1.5s0.3,0.6,0.6,0.7c0.3,0.2,0.7,0.2,1.1,0.2c0.7,0,1.3-0.2,1.6-0.5c0.3-0.3,0.5-1,0.5-1.9V297.5z
			 M124.4,305.1v-6.7h-2.5v-0.9h6v0.9h-2.5v6.7H124.4z M129,305.1v-7.6h1v3.1h4v-3.1h1v7.6h-1v-3.6h-4v3.6H129z M136.3,301.4
			c0-1.3,0.3-2.2,1-3c0.7-0.7,1.6-1.1,2.6-1.1c0.7,0,1.3,0.2,1.9,0.5c0.6,0.3,1,0.8,1.3,1.4c0.3,0.6,0.5,1.3,0.5,2
			c0,0.8-0.2,1.5-0.5,2.1c-0.3,0.6-0.8,1.1-1.3,1.4c-0.6,0.3-1.2,0.5-1.9,0.5c-0.7,0-1.4-0.2-1.9-0.5c-0.6-0.3-1-0.8-1.3-1.4
			C136.5,302.7,136.3,302,136.3,301.4z M137.4,301.4c0,0.9,0.2,1.6,0.7,2.2c0.5,0.5,1.1,0.8,1.9,0.8c0.8,0,1.4-0.3,1.9-0.8
			c0.5-0.5,0.7-1.3,0.7-2.3c0-0.6-0.1-1.2-0.3-1.6c-0.2-0.5-0.5-0.8-0.9-1.1c-0.4-0.3-0.9-0.4-1.4-0.4c-0.7,0-1.3,0.2-1.8,0.7
			C137.6,299.4,137.4,300.2,137.4,301.4z M144.9,305.1v-7.6h3.4c0.7,0,1.2,0.1,1.5,0.2c0.4,0.1,0.6,0.4,0.8,0.7
			c0.2,0.3,0.3,0.7,0.3,1.1c0,0.5-0.2,1-0.5,1.4c-0.3,0.4-0.9,0.6-1.6,0.7c0.3,0.1,0.5,0.2,0.6,0.4c0.3,0.3,0.6,0.6,0.8,1l1.3,2.1
			h-1.3l-1-1.6c-0.3-0.5-0.5-0.8-0.7-1c-0.2-0.2-0.4-0.4-0.5-0.5c-0.1-0.1-0.3-0.2-0.5-0.2c-0.1,0-0.3,0-0.6,0h-1.2v3.4H144.9z
			 M145.9,300.8h2.2c0.5,0,0.8,0,1.1-0.1c0.3-0.1,0.5-0.2,0.6-0.5c0.1-0.2,0.2-0.4,0.2-0.7c0-0.4-0.1-0.7-0.4-0.9
			c-0.3-0.2-0.7-0.3-1.2-0.3h-2.4V300.8z M152.8,305.1v-7.6h1v7.6H152.8z M155,305.1v-0.9l3.9-4.9c0.3-0.3,0.5-0.6,0.8-0.9h-4.2
			v-0.9h5.5v0.9l-4.3,5.3l-0.5,0.5h4.9v0.9H155z M161.2,305.1l2.9-7.6h1.1l3.1,7.6h-1.2l-0.9-2.3h-3.2l-0.8,2.3H161.2z M163.4,302
			h2.6l-0.8-2.1c-0.2-0.6-0.4-1.2-0.5-1.6c-0.1,0.5-0.2,1-0.4,1.5L163.4,302z M170.3,305.1v-6.7h-2.5v-0.9h6v0.9h-2.5v6.7H170.3z
			 M175.1,305.1v-7.6h1v7.6H175.1z M177.6,301.4c0-1.3,0.3-2.2,1-3c0.7-0.7,1.6-1.1,2.6-1.1c0.7,0,1.3,0.2,1.9,0.5
			c0.6,0.3,1,0.8,1.3,1.4c0.3,0.6,0.5,1.3,0.5,2s-0.2,1.5-0.5,2.1c-0.3,0.6-0.8,1.1-1.3,1.4s-1.2,0.5-1.9,0.5
			c-0.7,0-1.4-0.2-1.9-0.5s-1-0.8-1.3-1.4C177.7,302.7,177.6,302,177.6,301.4z M178.6,301.4c0,0.9,0.2,1.6,0.7,2.2s1.1,0.8,1.9,0.8
			c0.8,0,1.4-0.3,1.9-0.8c0.5-0.5,0.7-1.3,0.7-2.3c0-0.6-0.1-1.2-0.3-1.6c-0.2-0.5-0.5-0.8-0.9-1.1c-0.4-0.3-0.9-0.4-1.4-0.4
			c-0.7,0-1.3,0.2-1.8,0.7S178.6,300.2,178.6,301.4z M186.1,305.1v-7.6h1l4,6v-6h1v7.6h-1l-4-6v6H186.1z"/>
		<path class="st8" d="M133.6,318.1v-7.6h1v6.7h3.8v0.9H133.6z M138.7,318.1l2.9-7.6h1.1l3.1,7.6h-1.2l-0.9-2.3h-3.2l-0.8,2.3H138.7
			z M140.9,315h2.6l-0.8-2.1c-0.2-0.6-0.4-1.2-0.5-1.6c-0.1,0.5-0.2,1-0.4,1.5L140.9,315z M148,318.1v-3.2l-2.9-4.4h1.2l1.5,2.3
			c0.3,0.4,0.5,0.9,0.8,1.3c0.2-0.4,0.5-0.9,0.8-1.4l1.5-2.2h1.2l-3,4.4v3.2H148z M153,318.1v-7.6h5.5v0.9H154v2.3h4.2v0.9H154v2.6
			h4.7v0.9H153z M160.1,318.1v-7.6h3.4c0.7,0,1.2,0.1,1.5,0.2c0.4,0.1,0.6,0.4,0.8,0.7c0.2,0.3,0.3,0.7,0.3,1.1c0,0.5-0.2,1-0.5,1.4
			c-0.3,0.4-0.9,0.6-1.6,0.7c0.3,0.1,0.5,0.2,0.6,0.4c0.3,0.3,0.6,0.6,0.8,1l1.3,2.1h-1.3l-1-1.6c-0.3-0.5-0.5-0.8-0.7-1
			c-0.2-0.2-0.4-0.4-0.5-0.5c-0.1-0.1-0.3-0.2-0.5-0.2c-0.1,0-0.3,0-0.6,0h-1.2v3.4H160.1z M161.1,313.8h2.2c0.5,0,0.8,0,1.1-0.1
			c0.3-0.1,0.5-0.2,0.6-0.5c0.1-0.2,0.2-0.4,0.2-0.7c0-0.4-0.1-0.7-0.4-0.9c-0.3-0.2-0.7-0.3-1.2-0.3h-2.4V313.8z"/>
		<path class="st7" d="M123.9,241.6h52v47.6h-52V241.6z"/>
		<g transform="matrix(0.1775818897637795 0.0 0.0 0.17758818897637796 222.1706892388452 269.1083265091863)">
			<g>
				<defs>
					<rect id="SVGID_3_" x="-433" y="-44.8" width="52" height="47.6"/>
				</defs>
				<clipPath id="SVGID_4_">
					<use xlink:href="#SVGID_3_"  style="overflow:visible;"/>
				</clipPath>
				<g style="clip-path:url(#SVGID_4_);enable-background:new    ;">
					
						<image style="overflow:visible;" width="293" height="268" xlink:href="C2F20A8830E5D7C7.png"  transform="matrix(1 0 0 1 -553.4465 -154.9945)">
					</image>
				</g>
			</g>
		</g>
		<path class="st5" d="M61.7,376L61.7,376c0-8.4,6.8-15.1,15.1-15.1h68.9c4,0,7.9,1.6,10.7,4.4c2.8,2.8,4.4,6.7,4.4,10.7v60.5
			c0,8.4-6.8,15.1-15.1,15.1H76.8c-8.4,0-15.1-6.8-15.1-15.1V376z"/>
		<path class="st7" d="M82.5,372.8h44.9v46.5H82.5V372.8z"/>
		<g transform="matrix(0.1644530183727034 0.0 0.0 0.16445328083989497 180.81463254593174 400.3522391076115)">
			<g>
				<defs>
					<rect id="SVGID_5_" x="-483.6" y="-49.1" width="44.9" height="46.5"/>
				</defs>
				<clipPath id="SVGID_6_">
					<use xlink:href="#SVGID_5_"  style="overflow:visible;"/>
				</clipPath>
				<g style="clip-path:url(#SVGID_6_);enable-background:new    ;">
					
						<image style="overflow:visible;" width="273" height="283" xlink:href="C2F20A8830E5D7C2.png"  transform="matrix(1 0 0 1 -597.6306 -167.374)">
					</image>
				</g>
			</g>
		</g>
		<path class="st7" d="M71.5,425.6H151v22.6H71.5V425.6z"/>
		<path class="st8" d="M80.5,439.8l2.9-7.6h1.1l3.1,7.6h-1.2l-0.9-2.3h-3.2l-0.8,2.3H80.5z M82.7,436.7h2.6l-0.8-2.1
			c-0.2-0.6-0.4-1.2-0.5-1.6c-0.1,0.5-0.2,1-0.4,1.5L82.7,436.7z M88.5,439.8v-7.6h1l4,6v-6h1v7.6h-1l-4-6v6H88.5z M95.3,439.8
			l2.9-7.6h1.1l3.1,7.6h-1.2l-0.9-2.3h-3.2l-0.8,2.3H95.3z M97.5,436.7h2.6l-0.8-2.1c-0.2-0.6-0.4-1.2-0.5-1.6
			c-0.1,0.5-0.2,1-0.4,1.5L97.5,436.7z M103.2,439.8v-7.6h1v6.7h3.8v0.9H103.2z M110.6,439.8v-3.2l-2.9-4.4h1.2l1.5,2.3
			c0.3,0.4,0.5,0.9,0.8,1.3c0.2-0.4,0.5-0.9,0.8-1.4l1.5-2.2h1.2l-3,4.4v3.2H110.6z M117.5,439.8v-6.7H115v-0.9h6v0.9h-2.5v6.7
			H117.5z M122.2,439.8v-7.6h1v7.6H122.2z M130.4,437.1l1,0.2c-0.2,0.8-0.6,1.5-1.2,1.9c-0.5,0.4-1.2,0.6-2,0.6
			c-0.8,0-1.5-0.2-2-0.5c-0.5-0.3-0.9-0.8-1.2-1.5c-0.3-0.6-0.4-1.3-0.4-2c0-0.8,0.2-1.5,0.5-2.1c0.3-0.6,0.7-1,1.3-1.3
			c0.6-0.3,1.2-0.5,1.8-0.5c0.8,0,1.4,0.2,1.9,0.6c0.5,0.4,0.9,0.9,1.1,1.6l-1,0.2c-0.2-0.6-0.4-1-0.8-1.2c-0.3-0.3-0.8-0.4-1.3-0.4
			c-0.6,0-1.1,0.1-1.5,0.4c-0.4,0.3-0.7,0.7-0.8,1.1c-0.2,0.5-0.2,1-0.2,1.5c0,0.6,0.1,1.2,0.3,1.7c0.2,0.5,0.5,0.8,0.9,1.1
			c0.4,0.2,0.8,0.4,1.3,0.4c0.6,0,1-0.2,1.4-0.5C130,438.2,130.3,437.8,130.4,437.1z M132.4,437.3l1-0.1c0,0.4,0.1,0.7,0.3,0.9
			c0.2,0.2,0.4,0.4,0.8,0.6c0.3,0.1,0.7,0.2,1.2,0.2c0.4,0,0.7-0.1,1-0.2c0.3-0.1,0.5-0.3,0.7-0.5c0.1-0.2,0.2-0.4,0.2-0.7
			c0-0.2-0.1-0.4-0.2-0.6c-0.1-0.2-0.4-0.3-0.7-0.4c-0.2-0.1-0.7-0.2-1.4-0.4c-0.7-0.2-1.2-0.3-1.5-0.5c-0.4-0.2-0.6-0.4-0.8-0.7
			c-0.2-0.3-0.3-0.6-0.3-1c0-0.4,0.1-0.7,0.3-1.1c0.2-0.3,0.5-0.6,1-0.8c0.4-0.2,0.9-0.3,1.4-0.3c0.6,0,1.1,0.1,1.5,0.3
			c0.4,0.2,0.8,0.4,1,0.8c0.2,0.4,0.4,0.8,0.4,1.2l-1,0.1c-0.1-0.5-0.2-0.8-0.5-1.1c-0.3-0.3-0.7-0.4-1.3-0.4
			c-0.6,0-1.1,0.1-1.3,0.3c-0.3,0.2-0.4,0.5-0.4,0.8c0,0.3,0.1,0.5,0.3,0.7c0.2,0.2,0.7,0.4,1.5,0.5c0.8,0.2,1.4,0.3,1.7,0.5
			c0.4,0.2,0.8,0.5,1,0.8c0.2,0.3,0.3,0.7,0.3,1.1c0,0.4-0.1,0.8-0.3,1.2c-0.2,0.4-0.6,0.6-1,0.8c-0.4,0.2-0.9,0.3-1.5,0.3
			c-0.7,0-1.3-0.1-1.8-0.3c-0.5-0.2-0.8-0.5-1.1-0.9C132.5,438.3,132.4,437.9,132.4,437.3z"/>
		<path class="st7" d="M126.5,131H173v39.3h-46.5V131z"/>
		<g transform="matrix(0.14364278215223097 0.0 0.0 0.14338398950131234 224.73859921259842 158.50377296587925)">
			<g>
				<defs>
					<rect id="SVGID_7_" x="-545.5" y="-74.6" width="46.5" height="39.3"/>
				</defs>
				<clipPath id="SVGID_8_">
					<use xlink:href="#SVGID_7_"  style="overflow:visible;"/>
				</clipPath>
				<g style="clip-path:url(#SVGID_8_);enable-background:new    ;">
					
						<image style="overflow:visible;" width="324" height="274" xlink:href="C2F20A8830E5D7C3.png"  transform="matrix(1 0 0 1 -684.2112 -191.9682)">
					</image>
				</g>
			</g>
		</g>
		<path class="st7" d="M119.2,176.1h61.1v22.6h-61.1V176.1z"/>
		<path class="st8" d="M130.3,190.3l-2-7.6h1l1.2,5c0.1,0.5,0.2,1,0.3,1.6c0.2-0.8,0.3-1.3,0.3-1.4l1.5-5.1h1.2l1.1,3.9
			c0.3,1,0.5,1.9,0.6,2.7c0.1-0.5,0.2-1,0.4-1.7l1.2-4.9h1l-2.1,7.6h-1l-1.6-5.8c-0.1-0.5-0.2-0.8-0.2-0.9c-0.1,0.3-0.2,0.6-0.2,0.9
			l-1.6,5.8H130.3z M139.1,190.3v-7.6h5.5v0.9h-4.5v2.3h4.2v0.9h-4.2v2.6h4.7v0.9H139.1z M146.1,190.3v-7.6h2.9
			c0.6,0,1.1,0.1,1.4,0.2c0.4,0.1,0.6,0.4,0.8,0.7c0.2,0.3,0.3,0.7,0.3,1c0,0.3-0.1,0.6-0.3,0.9c-0.2,0.3-0.4,0.5-0.8,0.7
			c0.5,0.1,0.8,0.4,1.1,0.7c0.2,0.3,0.4,0.7,0.4,1.1c0,0.4-0.1,0.7-0.2,1c-0.1,0.3-0.3,0.5-0.6,0.7c-0.2,0.2-0.5,0.3-0.8,0.4
			c-0.3,0.1-0.7,0.1-1.2,0.1H146.1z M147.1,185.9h1.6c0.4,0,0.8,0,1-0.1c0.2-0.1,0.4-0.2,0.6-0.4c0.1-0.2,0.2-0.4,0.2-0.7
			c0-0.2-0.1-0.5-0.2-0.7c-0.1-0.2-0.3-0.3-0.5-0.4c-0.2-0.1-0.6-0.1-1.2-0.1h-1.5V185.9z M147.1,189.4h1.9c0.3,0,0.6,0,0.7,0
			c0.2,0,0.4-0.1,0.6-0.2c0.2-0.1,0.3-0.2,0.4-0.4c0.1-0.2,0.2-0.4,0.2-0.7c0-0.3-0.1-0.5-0.2-0.7c-0.1-0.2-0.3-0.4-0.6-0.4
			c-0.3-0.1-0.6-0.1-1.1-0.1h-1.8V189.4z M161.2,182.7h1v4.4c0,0.8-0.1,1.4-0.3,1.8c-0.2,0.4-0.5,0.8-1,1.1c-0.4,0.3-1,0.4-1.8,0.4
			c-0.7,0-1.3-0.1-1.8-0.4c-0.4-0.2-0.8-0.6-1-1.1c-0.2-0.5-0.3-1.1-0.3-1.9v-4.4h1v4.4c0,0.7,0.1,1.1,0.2,1.5s0.3,0.6,0.6,0.7
			c0.3,0.2,0.7,0.2,1.1,0.2c0.7,0,1.3-0.2,1.6-0.5c0.3-0.3,0.5-1,0.5-1.9V182.7z M164.1,190.3v-7.6h1v7.6H164.1z"/>
		<path class="st7" d="M278.2,244.4h48.9v47.4h-48.9V244.4z"/>
		<g transform="matrix(0.1888548556430446 0.0 0.0 0.18886482939632546 376.47777191601045 271.89158162729655)">
			<g>
				<defs>
					<rect id="SVGID_9_" x="-415.4" y="-43.9" width="48.9" height="47.4"/>
				</defs>
				<clipPath id="SVGID_10_">
					<use xlink:href="#SVGID_9_"  style="overflow:visible;"/>
				</clipPath>
				<g style="clip-path:url(#SVGID_10_);enable-background:new    ;">
					
						<image style="overflow:visible;" width="259" height="251" xlink:href="C2F20A8830E5D7CD.png"  transform="matrix(1 0 0 1 -520.4106 -145.7399)">
					</image>
				</g>
			</g>
		</g>
		<path class="st7" d="M249.9,294.3h89.9v35.6h-89.9V294.3z"/>
		<path class="st8" d="M286.2,308.5l2.9-7.6h1.1l3.1,7.6h-1.2l-0.9-2.3h-3.2l-0.8,2.3H286.2z M288.4,305.4h2.6l-0.8-2.1
			c-0.2-0.6-0.4-1.2-0.5-1.6c-0.1,0.5-0.2,1-0.4,1.5L288.4,305.4z M294.2,308.5v-7.6h2.9c0.5,0,0.9,0,1.2,0.1
			c0.4,0.1,0.7,0.2,0.9,0.4c0.3,0.2,0.5,0.4,0.6,0.8c0.2,0.3,0.2,0.7,0.2,1c0,0.6-0.2,1.2-0.6,1.7c-0.4,0.4-1.2,0.7-2.2,0.7h-2v3.1
			H294.2z M295.2,304.5h2c0.7,0,1.1-0.1,1.4-0.4c0.3-0.2,0.4-0.6,0.4-1c0-0.3-0.1-0.6-0.2-0.8c-0.2-0.2-0.4-0.4-0.6-0.5
			c-0.2-0.1-0.5-0.1-0.9-0.1h-2V304.5z M301.5,308.5v-7.6h1v7.6H301.5z"/>
		<path class="st3" d="M232,331.7v17.8h10.7L225.5,362l-17.2-12.5h10.7v-17.8H232z"/>
		<path class="st9" d="M232,331.7v17.8h10.7L225.5,362l-17.2-12.5h10.7v-17.8H232z"/>
		<path class="st7" d="M272.2,125.1h48.9v43.6h-48.9V125.1z"/>
		<g transform="matrix(0.17851601049868768 0.0 0.0 0.18034908136482933 370.49873517060365 152.58104356955383)">
			<g>
				<defs>
					<rect id="SVGID_11_" x="-438" y="-53.4" width="48.9" height="43.6"/>
				</defs>
				<clipPath id="SVGID_12_">
					<use xlink:href="#SVGID_11_"  style="overflow:visible;"/>
				</clipPath>
				<g style="clip-path:url(#SVGID_12_);enable-background:new    ;">
					
						<image style="overflow:visible;" width="274" height="242" xlink:href="C2F20A8830E5D7CF.png"  transform="matrix(1 0 0 1 -550.5509 -152.6217)">
					</image>
				</g>
			</g>
		</g>
		<path class="st7" d="M254.8,168.3h91.4v35.6h-91.4V168.3z"/>
		<path class="st8" d="M281.5,180.1l1-0.1c0,0.4,0.1,0.7,0.3,0.9c0.2,0.2,0.4,0.4,0.8,0.6c0.3,0.1,0.7,0.2,1.2,0.2
			c0.4,0,0.7-0.1,1-0.2c0.3-0.1,0.5-0.3,0.7-0.5c0.1-0.2,0.2-0.4,0.2-0.7c0-0.2-0.1-0.4-0.2-0.6c-0.1-0.2-0.4-0.3-0.7-0.4
			c-0.2-0.1-0.7-0.2-1.4-0.4c-0.7-0.2-1.2-0.3-1.5-0.5c-0.4-0.2-0.6-0.4-0.8-0.7c-0.2-0.3-0.3-0.6-0.3-1c0-0.4,0.1-0.7,0.3-1.1
			c0.2-0.3,0.5-0.6,1-0.8c0.4-0.2,0.9-0.3,1.4-0.3c0.6,0,1.1,0.1,1.5,0.3c0.4,0.2,0.8,0.4,1,0.8c0.2,0.4,0.4,0.8,0.4,1.2l-1,0.1
			c-0.1-0.5-0.2-0.8-0.5-1.1c-0.3-0.2-0.7-0.4-1.3-0.4c-0.6,0-1.1,0.1-1.3,0.3c-0.3,0.2-0.4,0.5-0.4,0.8c0,0.3,0.1,0.5,0.3,0.7
			c0.2,0.2,0.7,0.4,1.5,0.5c0.8,0.2,1.4,0.3,1.7,0.5c0.4,0.2,0.8,0.5,1,0.8c0.2,0.3,0.3,0.7,0.3,1.1s-0.1,0.8-0.3,1.2
			c-0.2,0.4-0.6,0.6-1,0.8c-0.4,0.2-0.9,0.3-1.5,0.3c-0.7,0-1.3-0.1-1.8-0.3c-0.5-0.2-0.8-0.5-1.1-0.9
			C281.7,181.1,281.5,180.6,281.5,180.1z M294.4,179.9l1,0.2c-0.2,0.8-0.6,1.5-1.2,1.9c-0.5,0.4-1.2,0.6-2,0.6c-0.8,0-1.5-0.2-2-0.5
			c-0.5-0.3-0.9-0.8-1.2-1.5c-0.3-0.6-0.4-1.3-0.4-2c0-0.8,0.2-1.5,0.5-2.1s0.7-1,1.3-1.3c0.6-0.3,1.2-0.5,1.8-0.5
			c0.8,0,1.4,0.2,1.9,0.6c0.5,0.4,0.9,0.9,1.1,1.6l-1,0.2c-0.2-0.6-0.4-1-0.8-1.2c-0.3-0.2-0.8-0.4-1.3-0.4c-0.6,0-1.1,0.1-1.5,0.4
			s-0.7,0.7-0.8,1.1c-0.2,0.5-0.2,1-0.2,1.5c0,0.6,0.1,1.2,0.3,1.7c0.2,0.5,0.5,0.8,0.9,1.1c0.4,0.2,0.8,0.4,1.3,0.4
			c0.6,0,1-0.2,1.4-0.5C294,181,294.3,180.5,294.4,179.9z M296.7,182.5v-7.6h3.4c0.7,0,1.2,0.1,1.5,0.2c0.4,0.1,0.6,0.4,0.8,0.7
			c0.2,0.3,0.3,0.7,0.3,1.1c0,0.5-0.2,1-0.5,1.4c-0.3,0.4-0.9,0.6-1.6,0.7c0.3,0.1,0.5,0.2,0.6,0.4c0.3,0.3,0.6,0.6,0.8,1l1.3,2.1
			h-1.3l-1-1.6c-0.3-0.5-0.5-0.8-0.7-1c-0.2-0.2-0.4-0.4-0.5-0.5c-0.1-0.1-0.3-0.2-0.5-0.2c-0.1,0-0.3,0-0.6,0h-1.2v3.4H296.7z
			 M297.7,178.3h2.2c0.5,0,0.8,0,1.1-0.1c0.3-0.1,0.5-0.2,0.6-0.5c0.1-0.2,0.2-0.4,0.2-0.7c0-0.4-0.1-0.7-0.4-0.9
			c-0.3-0.2-0.7-0.3-1.2-0.3h-2.4V178.3z M304.5,182.5v-7.6h1v7.6H304.5z M307.3,182.5v-7.6h2.9c0.5,0,0.9,0,1.2,0.1
			c0.4,0.1,0.7,0.2,0.9,0.4c0.3,0.2,0.5,0.4,0.6,0.8c0.2,0.3,0.2,0.7,0.2,1c0,0.6-0.2,1.2-0.6,1.7c-0.4,0.4-1.2,0.7-2.2,0.7h-2v3.1
			H307.3z M308.3,178.5h2c0.7,0,1.1-0.1,1.4-0.4c0.3-0.2,0.4-0.6,0.4-1c0-0.3-0.1-0.6-0.2-0.8c-0.2-0.2-0.4-0.4-0.6-0.5
			c-0.2-0.1-0.5-0.1-0.9-0.1h-2V178.5z M316.4,182.5v-6.7h-2.5v-0.9h6v0.9h-2.5v6.7H316.4z"/>
		<path class="st8" d="M265.9,195.5v-7.6h2.9c0.5,0,0.9,0,1.2,0.1c0.4,0.1,0.7,0.2,0.9,0.4c0.3,0.2,0.5,0.4,0.6,0.8
			c0.2,0.3,0.2,0.7,0.2,1c0,0.6-0.2,1.2-0.6,1.7c-0.4,0.4-1.2,0.7-2.2,0.7h-2v3.1H265.9z M266.9,191.5h2c0.7,0,1.1-0.1,1.4-0.4
			c0.3-0.2,0.4-0.6,0.4-1c0-0.3-0.1-0.6-0.2-0.8c-0.2-0.2-0.4-0.4-0.6-0.5c-0.2-0.1-0.5-0.1-0.9-0.1h-2V191.5z M273,195.5v-7.6h3.4
			c0.7,0,1.2,0.1,1.5,0.2c0.4,0.1,0.6,0.4,0.8,0.7c0.2,0.3,0.3,0.7,0.3,1.1c0,0.5-0.2,1-0.5,1.4c-0.3,0.4-0.9,0.6-1.6,0.7
			c0.3,0.1,0.5,0.2,0.6,0.4c0.3,0.3,0.6,0.6,0.8,1l1.3,2.1h-1.3l-1-1.6c-0.3-0.5-0.5-0.8-0.7-1c-0.2-0.2-0.4-0.4-0.5-0.5
			c-0.1-0.1-0.3-0.2-0.5-0.2c-0.1,0-0.3,0-0.6,0H274v3.4H273z M274,191.3h2.2c0.5,0,0.8,0,1.1-0.1c0.3-0.1,0.5-0.2,0.6-0.5
			c0.1-0.2,0.2-0.4,0.2-0.7c0-0.4-0.1-0.7-0.4-0.9c-0.3-0.2-0.7-0.3-1.2-0.3H274V191.3z M280.4,191.8c0-1.3,0.3-2.2,1-3
			c0.7-0.7,1.6-1.1,2.6-1.1c0.7,0,1.3,0.2,1.9,0.5c0.6,0.3,1,0.8,1.3,1.4c0.3,0.6,0.5,1.3,0.5,2c0,0.8-0.2,1.5-0.5,2.1
			c-0.3,0.6-0.8,1.1-1.3,1.4c-0.6,0.3-1.2,0.5-1.9,0.5c-0.7,0-1.4-0.2-1.9-0.5s-1-0.8-1.3-1.4C280.5,193.1,280.4,192.5,280.4,191.8z
			 M281.4,191.8c0,0.9,0.2,1.6,0.7,2.2c0.5,0.5,1.1,0.8,1.9,0.8c0.8,0,1.4-0.3,1.9-0.8c0.5-0.5,0.7-1.3,0.7-2.3
			c0-0.6-0.1-1.2-0.3-1.6c-0.2-0.5-0.5-0.8-0.9-1.1c-0.4-0.3-0.9-0.4-1.4-0.4c-0.7,0-1.3,0.2-1.8,0.7
			C281.7,189.9,281.4,190.7,281.4,191.8z M294.4,192.9l1,0.2c-0.2,0.8-0.6,1.5-1.2,1.9c-0.5,0.4-1.2,0.6-2,0.6c-0.8,0-1.5-0.2-2-0.5
			c-0.5-0.3-0.9-0.8-1.2-1.5c-0.3-0.6-0.4-1.3-0.4-2c0-0.8,0.2-1.5,0.5-2.1c0.3-0.6,0.7-1,1.3-1.3c0.6-0.3,1.2-0.5,1.8-0.5
			c0.8,0,1.4,0.2,1.9,0.6c0.5,0.4,0.9,0.9,1.1,1.6l-1,0.2c-0.2-0.6-0.4-1-0.8-1.2c-0.3-0.2-0.8-0.4-1.3-0.4c-0.6,0-1.1,0.1-1.5,0.4
			c-0.4,0.3-0.7,0.7-0.8,1.1c-0.2,0.5-0.2,1-0.2,1.5c0,0.6,0.1,1.2,0.3,1.7c0.2,0.5,0.5,0.8,0.9,1.1c0.4,0.2,0.8,0.4,1.3,0.4
			c0.6,0,1-0.2,1.4-0.5C294,194,294.3,193.5,294.4,192.9z M296.7,195.5v-7.6h5.5v0.9h-4.5v2.3h4.2v0.9h-4.2v2.6h4.7v0.9H296.7z
			 M303.4,193.1l1-0.1c0,0.4,0.1,0.7,0.3,0.9c0.2,0.2,0.4,0.4,0.8,0.6c0.3,0.1,0.7,0.2,1.2,0.2c0.4,0,0.7-0.1,1-0.2
			c0.3-0.1,0.5-0.3,0.7-0.5c0.1-0.2,0.2-0.4,0.2-0.7c0-0.2-0.1-0.4-0.2-0.6c-0.1-0.2-0.4-0.3-0.7-0.4c-0.2-0.1-0.7-0.2-1.4-0.4
			c-0.7-0.2-1.2-0.3-1.5-0.5c-0.4-0.2-0.6-0.4-0.8-0.7c-0.2-0.3-0.3-0.6-0.3-1c0-0.4,0.1-0.7,0.3-1.1c0.2-0.3,0.5-0.6,1-0.8
			c0.4-0.2,0.9-0.3,1.4-0.3c0.6,0,1.1,0.1,1.5,0.3c0.4,0.2,0.8,0.4,1,0.8c0.2,0.4,0.4,0.8,0.4,1.2l-1,0.1c-0.1-0.5-0.2-0.8-0.5-1.1
			c-0.3-0.2-0.7-0.4-1.3-0.4c-0.6,0-1.1,0.1-1.3,0.3c-0.3,0.2-0.4,0.5-0.4,0.8c0,0.3,0.1,0.5,0.3,0.7c0.2,0.2,0.7,0.4,1.5,0.5
			c0.8,0.2,1.4,0.3,1.7,0.5c0.4,0.2,0.8,0.5,1,0.8c0.2,0.3,0.3,0.7,0.3,1.1c0,0.4-0.1,0.8-0.3,1.2c-0.2,0.4-0.6,0.6-1,0.8
			c-0.4,0.2-0.9,0.3-1.5,0.3c-0.7,0-1.3-0.1-1.8-0.3c-0.5-0.2-0.8-0.5-1.1-0.9C303.6,194.1,303.4,193.6,303.4,193.1z M310.5,193.1
			l1-0.1c0,0.4,0.1,0.7,0.3,0.9c0.2,0.2,0.4,0.4,0.8,0.6c0.3,0.1,0.7,0.2,1.2,0.2c0.4,0,0.7-0.1,1-0.2c0.3-0.1,0.5-0.3,0.7-0.5
			c0.1-0.2,0.2-0.4,0.2-0.7c0-0.2-0.1-0.4-0.2-0.6c-0.1-0.2-0.4-0.3-0.7-0.4c-0.2-0.1-0.7-0.2-1.4-0.4c-0.7-0.2-1.2-0.3-1.5-0.5
			c-0.4-0.2-0.6-0.4-0.8-0.7c-0.2-0.3-0.3-0.6-0.3-1c0-0.4,0.1-0.7,0.3-1.1c0.2-0.3,0.5-0.6,1-0.8c0.4-0.2,0.9-0.3,1.4-0.3
			c0.6,0,1.1,0.1,1.5,0.3c0.4,0.2,0.8,0.4,1,0.8c0.2,0.4,0.4,0.8,0.4,1.2l-1,0.1c-0.1-0.5-0.2-0.8-0.5-1.1c-0.3-0.2-0.7-0.4-1.3-0.4
			c-0.6,0-1.1,0.1-1.3,0.3c-0.3,0.2-0.4,0.5-0.4,0.8c0,0.3,0.1,0.5,0.3,0.7c0.2,0.2,0.7,0.4,1.5,0.5c0.8,0.2,1.4,0.3,1.7,0.5
			c0.4,0.2,0.8,0.5,1,0.8c0.2,0.3,0.3,0.7,0.3,1.1s-0.1,0.8-0.3,1.2c-0.2,0.4-0.6,0.6-1,0.8c-0.4,0.2-0.9,0.3-1.5,0.3
			c-0.7,0-1.3-0.1-1.8-0.3c-0.5-0.2-0.8-0.5-1.1-0.9C310.7,194.1,310.5,193.6,310.5,193.1z M318.1,195.5v-7.6h1v7.6H318.1z
			 M320.9,195.5v-7.6h1l4,6v-6h1v7.6h-1l-4-6v6H320.9z M332.2,192.6v-0.9h3.2v2.8c-0.5,0.4-1,0.7-1.5,0.9c-0.5,0.2-1.1,0.3-1.6,0.3
			c-0.8,0-1.4-0.2-2-0.5c-0.6-0.3-1.1-0.8-1.4-1.4c-0.3-0.6-0.5-1.3-0.5-2c0-0.7,0.2-1.4,0.5-2.1c0.3-0.6,0.8-1.1,1.3-1.4
			s1.3-0.5,2-0.5c0.6,0,1,0.1,1.5,0.3c0.4,0.2,0.8,0.4,1,0.8c0.3,0.3,0.5,0.7,0.6,1.2l-0.9,0.2c-0.1-0.4-0.3-0.7-0.4-0.9
			c-0.2-0.2-0.4-0.4-0.7-0.5c-0.3-0.1-0.7-0.2-1-0.2c-0.5,0-0.9,0.1-1.2,0.2c-0.3,0.1-0.6,0.3-0.8,0.5c-0.2,0.2-0.4,0.5-0.5,0.8
			c-0.2,0.5-0.3,1-0.3,1.5c0,0.7,0.1,1.3,0.3,1.7c0.2,0.4,0.6,0.8,1,1c0.4,0.2,0.9,0.3,1.4,0.3c0.4,0,0.9-0.1,1.3-0.2
			c0.4-0.2,0.7-0.3,1-0.5v-1.4H332.2z"/>
		<path class="st10" d="M1,322.4v-80.5c0-4.4,1.8-8.6,4.9-11.8c3.1-3.1,7.3-4.9,11.8-4.9h32.3c0,0,0,0,0,0l0,113.8l0,0c0,0,0,0,0,0
			l-32.3,0l0,0C8.4,339.1,1,331.6,1,322.4z"/>
		<path class="st2" d="M1,322.4v-80.5c0-4.4,1.8-8.6,4.9-11.8c3.1-3.1,7.3-4.9,11.8-4.9h32.3c0,0,0,0,0,0l0,113.8l0,0c0,0,0,0,0,0
			l-32.3,0l0,0C8.4,339.1,1,331.6,1,322.4z"/>
		<path class="st7" d="M6.9,343.1V221.2h42v121.9H6.9z"/>
		<path class="st11" d="M23.7,315.7h-9.5v-3.6c0-0.7,0.1-1.3,0.3-1.8c0.2-0.4,0.5-0.8,0.9-1s0.8-0.4,1.3-0.4c0.4,0,0.8,0.1,1.2,0.3
			c0.4,0.2,0.6,0.5,0.9,1c0.2-0.6,0.5-1,0.9-1.3c0.4-0.3,0.9-0.5,1.4-0.5c0.4,0,0.9,0.1,1.2,0.3c0.4,0.2,0.7,0.4,0.9,0.7
			c0.2,0.3,0.4,0.6,0.5,1c0.1,0.4,0.2,0.9,0.2,1.5V315.7z M18.2,314.4v-2.1c0-0.6,0-1-0.1-1.2c-0.1-0.3-0.2-0.6-0.5-0.7
			c-0.2-0.2-0.5-0.2-0.8-0.2c-0.3,0-0.6,0.1-0.8,0.2c-0.2,0.1-0.4,0.4-0.5,0.6s-0.1,0.8-0.1,1.5v1.9H18.2z M22.6,314.4V312
			c0-0.4,0-0.7,0-0.9c-0.1-0.3-0.1-0.5-0.2-0.7c-0.1-0.2-0.3-0.4-0.5-0.5c-0.2-0.1-0.5-0.2-0.8-0.2c-0.4,0-0.7,0.1-0.9,0.3
			c-0.3,0.2-0.5,0.4-0.6,0.8c-0.1,0.3-0.2,0.8-0.2,1.4v2.2H22.6z M23.7,307.7l-9.5-3.7v-1.4l9.5-3.9v1.4l-2.9,1.1v4l2.9,1V307.7z
			 M19.8,305v-3.2l-2.6,1c-0.8,0.3-1.5,0.5-2,0.7c0.6,0.1,1.2,0.3,1.8,0.5L19.8,305z M20.3,291l0.3-1.3c1,0.3,1.8,0.7,2.4,1.4
			c0.5,0.7,0.8,1.5,0.8,2.5c0,1-0.2,1.9-0.6,2.5c-0.4,0.6-1,1.1-1.8,1.5c-0.8,0.3-1.6,0.5-2.6,0.5c-1,0-1.9-0.2-2.6-0.6
			c-0.7-0.4-1.3-0.9-1.7-1.6c-0.4-0.7-0.6-1.5-0.6-2.3c0-0.9,0.2-1.7,0.7-2.4c0.5-0.7,1.2-1.1,2-1.4l0.3,1.2c-0.7,0.2-1.2,0.5-1.5,1
			c-0.3,0.4-0.5,0.9-0.5,1.6c0,0.7,0.2,1.3,0.5,1.8c0.4,0.5,0.8,0.8,1.4,1c0.6,0.2,1.2,0.3,1.8,0.3c0.8,0,1.5-0.1,2.1-0.3
			c0.6-0.2,1.1-0.6,1.4-1.1c0.3-0.5,0.4-1,0.4-1.6c0-0.7-0.2-1.3-0.6-1.8C21.7,291.5,21.1,291.2,20.3,291z M23.7,288.2h-9.5V287h4.7
			l-4.7-4.7v-1.7l3.9,4l5.7-4.2v1.7l-4.8,3.4l1.5,1.6h3.3V288.2z M20.8,279.9h-1.2v-3.6h1.2V279.9z M23.7,274.8h-9.5v-6.9h1.1v5.6
			h2.9v-5.3h1.1v5.3h3.2v-5.9h1.1V274.8z M23.7,266h-9.5v-1.3l7.5-5h-7.5v-1.2h9.5v1.3l-7.5,5h7.5V266z M23.7,256.3h-9.5v-3.3
			c0-0.7,0-1.3,0.1-1.7c0.1-0.5,0.4-1,0.7-1.4c0.4-0.5,1-0.9,1.6-1.1c0.7-0.2,1.4-0.4,2.2-0.4c0.7,0,1.4,0.1,1.9,0.3
			c0.6,0.2,1,0.4,1.4,0.7c0.4,0.3,0.7,0.5,0.9,0.9c0.2,0.3,0.4,0.7,0.5,1.1c0.1,0.4,0.2,0.9,0.2,1.5V256.3z M22.6,255.1v-2
			c0-0.6-0.1-1.1-0.2-1.5c-0.1-0.4-0.3-0.7-0.5-0.9c-0.3-0.3-0.7-0.5-1.2-0.7c-0.5-0.2-1.1-0.2-1.8-0.2c-1,0-1.8,0.2-2.3,0.5
			c-0.5,0.3-0.9,0.7-1.1,1.2c-0.1,0.3-0.2,0.9-0.2,1.6v2H22.6z"/>
		<path class="st11" d="M39.7,318.3h-9.5v-1.2h9.5V318.3z M39.7,314.9h-9.5v-1.3l7.5-5h-7.5v-1.2h9.5v1.3l-7.5,5h7.5V314.9z
			 M39.7,302.8h-8.4v3.1h-1.1v-7.6h1.1v3.2h8.4V302.8z M39.7,297.1h-9.5v-6.9h1.1v5.6h2.9v-5.3h1.1v5.3h3.2v-5.9h1.1V297.1z
			 M39.7,288.2h-9.5v-4.2c0-0.8,0.1-1.5,0.3-1.9c0.2-0.4,0.5-0.8,0.9-1.1c0.4-0.3,0.9-0.4,1.4-0.4c0.7,0,1.2,0.2,1.7,0.7
			c0.5,0.4,0.8,1.1,0.9,2c0.2-0.3,0.3-0.6,0.5-0.8c0.3-0.4,0.8-0.7,1.3-1l2.6-1.7v1.6l-2,1.3c-0.6,0.4-1,0.7-1.3,0.9
			c-0.3,0.2-0.5,0.4-0.6,0.6c-0.1,0.2-0.2,0.4-0.2,0.6c0,0.1,0,0.4,0,0.7v1.5h4.2V288.2z M34.4,286.9v-2.7c0-0.6-0.1-1-0.2-1.3
			c-0.1-0.3-0.3-0.6-0.6-0.7c-0.3-0.2-0.5-0.3-0.9-0.3c-0.4,0-0.8,0.2-1.1,0.5c-0.3,0.3-0.4,0.8-0.4,1.5v3H34.4z M39.7,278.5h-9.5
			v-6.4h1.1v5.2h3v-4.5h1.1v4.5h4.3V278.5z M39.7,272.2l-9.5-3.7v-1.4l9.5-3.9v1.4l-2.9,1.1v4l2.9,1V272.2z M35.8,269.5v-3.2l-2.6,1
			c-0.8,0.3-1.5,0.5-2,0.7c0.6,0.1,1.2,0.3,1.8,0.5L35.8,269.5z M36.3,255.5l0.3-1.3c1,0.3,1.8,0.7,2.4,1.4c0.5,0.7,0.8,1.5,0.8,2.5
			c0,1-0.2,1.9-0.6,2.5c-0.4,0.6-1,1.1-1.8,1.5c-0.8,0.3-1.6,0.5-2.6,0.5c-1,0-1.9-0.2-2.6-0.6c-0.7-0.4-1.3-0.9-1.7-1.6
			c-0.4-0.7-0.6-1.5-0.6-2.3c0-0.9,0.2-1.7,0.7-2.4c0.5-0.7,1.2-1.1,2-1.4l0.3,1.2c-0.7,0.2-1.2,0.5-1.5,1c-0.3,0.4-0.5,0.9-0.5,1.6
			c0,0.7,0.2,1.3,0.5,1.8c0.4,0.5,0.8,0.8,1.4,1c0.6,0.2,1.2,0.3,1.8,0.3c0.8,0,1.5-0.1,2.1-0.3c0.6-0.2,1.1-0.6,1.4-1.1
			c0.3-0.5,0.4-1,0.4-1.6c0-0.7-0.2-1.3-0.6-1.8C37.7,256,37.1,255.6,36.3,255.5z M39.7,252.6h-9.5v-6.9h1.1v5.6h2.9v-5.3h1.1v5.3
			h3.2v-5.9h1.1V252.6z"/>
		<path class="st10" d="M1,199.2v-80.5c0-4.4,1.8-8.6,4.9-11.8c3.1-3.1,7.3-4.9,11.8-4.9h32.3c0,0,0,0,0,0l0,113.8l0,0c0,0,0,0,0,0
			l-32.3,0l0,0C8.4,215.8,1,208.3,1,199.2z"/>
		<path class="st2" d="M1,199.2v-80.5c0-4.4,1.8-8.6,4.9-11.8c3.1-3.1,7.3-4.9,11.8-4.9h32.3c0,0,0,0,0,0l0,113.8l0,0c0,0,0,0,0,0
			l-32.3,0l0,0C8.4,215.8,1,208.3,1,199.2z"/>
		<path class="st7" d="M6.9,219.8V98h42v121.9H6.9z"/>
		<path class="st11" d="M23.7,196.7h-9.5v-6.4h1.1v5.2h3v-4.5h1.1v4.5h4.3V196.7z M23.7,188.6h-9.5v-4.2c0-0.8,0.1-1.5,0.3-1.9
			c0.2-0.4,0.5-0.8,0.9-1.1c0.4-0.3,0.9-0.4,1.4-0.4c0.7,0,1.2,0.2,1.7,0.7c0.5,0.4,0.8,1.1,0.9,2c0.2-0.3,0.3-0.6,0.5-0.8
			c0.3-0.4,0.8-0.7,1.3-1l2.6-1.7v1.6l-2,1.3c-0.6,0.4-1,0.7-1.3,0.9c-0.3,0.2-0.5,0.4-0.6,0.6c-0.1,0.2-0.2,0.4-0.2,0.6
			c0,0.1,0,0.4,0,0.7v1.5h4.2V188.6z M18.4,187.3v-2.7c0-0.6-0.1-1-0.2-1.3c-0.1-0.3-0.3-0.6-0.6-0.7c-0.3-0.2-0.5-0.3-0.9-0.3
			c-0.4,0-0.8,0.2-1.1,0.5c-0.3,0.3-0.4,0.8-0.4,1.5v3H18.4z M19,179.4c-1.6,0-2.8-0.4-3.7-1.3c-0.9-0.9-1.3-2-1.3-3.3
			c0-0.9,0.2-1.7,0.6-2.4c0.4-0.7,1-1.2,1.8-1.6c0.8-0.4,1.6-0.6,2.6-0.6c1,0,1.8,0.2,2.6,0.6c0.8,0.4,1.3,0.9,1.7,1.7
			c0.4,0.7,0.6,1.5,0.6,2.3c0,0.9-0.2,1.7-0.6,2.4c-0.4,0.7-1,1.2-1.8,1.6C20.7,179.2,19.9,179.4,19,179.4z M19.1,178.1
			c1.1,0,2.1-0.3,2.7-0.9c0.7-0.6,1-1.4,1-2.3c0-0.9-0.3-1.7-1-2.3c-0.7-0.6-1.6-0.9-2.8-0.9c-0.8,0-1.4,0.1-2,0.4
			c-0.6,0.3-1,0.6-1.3,1.2c-0.3,0.5-0.5,1.1-0.5,1.7c0,0.9,0.3,1.7,0.9,2.3C16.6,177.7,17.6,178.1,19.1,178.1z M23.7,168.6h-9.5
			v-1.3l7.5-5h-7.5v-1.2h9.5v1.3l-7.5,5h7.5V168.6z M23.7,156.6h-8.4v3.1h-1.1v-7.6h1.1v3.2h8.4V156.6z M20.8,152.2h-1.2v-3.6h1.2
			V152.2z M23.7,147.1h-9.5v-6.9h1.1v5.6h2.9v-5.3h1.1v5.3h3.2V140h1.1V147.1z M23.7,138.3h-9.5V137l7.5-5h-7.5v-1.2h9.5v1.3l-7.5,5
			h7.5V138.3z M23.7,128.6h-9.5v-3.3c0-0.7,0-1.3,0.1-1.7c0.1-0.5,0.4-1,0.7-1.4c0.4-0.5,1-0.9,1.6-1.1c0.7-0.2,1.4-0.4,2.2-0.4
			c0.7,0,1.4,0.1,1.9,0.3c0.6,0.2,1,0.4,1.4,0.7c0.4,0.3,0.7,0.5,0.9,0.9c0.2,0.3,0.4,0.7,0.5,1.1c0.1,0.4,0.2,0.9,0.2,1.5V128.6z
			 M22.6,127.4v-2c0-0.6-0.1-1.1-0.2-1.5c-0.1-0.4-0.3-0.7-0.5-0.9c-0.3-0.3-0.7-0.5-1.2-0.7c-0.5-0.2-1.1-0.2-1.8-0.2
			c-1,0-1.8,0.2-2.3,0.5c-0.5,0.3-0.9,0.7-1.1,1.2c-0.1,0.3-0.2,0.9-0.2,1.6v2H22.6z"/>
		<path class="st11" d="M39.7,195h-9.5v-1.2h9.5V195z M39.7,191.6h-9.5v-1.3l7.5-5h-7.5v-1.2h9.5v1.3l-7.5,5h7.5V191.6z M39.7,179.5
			h-8.4v3.1h-1.1v-7.6h1.1v3.2h8.4V179.5z M39.7,173.8h-9.5v-6.9h1.1v5.6h2.9v-5.3h1.1v5.3h3.2v-5.9h1.1V173.8z M39.7,164.9h-9.5
			v-4.2c0-0.8,0.1-1.5,0.3-1.9c0.2-0.4,0.5-0.8,0.9-1.1c0.4-0.3,0.9-0.4,1.4-0.4c0.7,0,1.2,0.2,1.7,0.7c0.5,0.4,0.8,1.1,0.9,2
			c0.2-0.3,0.3-0.6,0.5-0.8c0.3-0.4,0.8-0.7,1.3-1l2.6-1.7v1.6l-2,1.3c-0.6,0.4-1,0.7-1.3,0.9c-0.3,0.2-0.5,0.4-0.6,0.6
			c-0.1,0.2-0.2,0.4-0.2,0.6c0,0.1,0,0.4,0,0.7v1.5h4.2V164.9z M34.4,163.6v-2.7c0-0.6-0.1-1-0.2-1.3c-0.1-0.3-0.3-0.6-0.6-0.7
			c-0.3-0.2-0.5-0.3-0.9-0.3c-0.4,0-0.8,0.2-1.1,0.5c-0.3,0.3-0.4,0.8-0.4,1.5v3H34.4z M39.7,155.2h-9.5v-6.4h1.1v5.2h3v-4.5h1.1
			v4.5h4.3V155.2z M39.7,148.9l-9.5-3.7v-1.4l9.5-3.9v1.4l-2.9,1.1v4l2.9,1V148.9z M35.8,146.2v-3.2l-2.6,1c-0.8,0.3-1.5,0.5-2,0.7
			c0.6,0.1,1.2,0.3,1.8,0.5L35.8,146.2z M36.3,132.2l0.3-1.3c1,0.3,1.8,0.7,2.4,1.4c0.5,0.7,0.8,1.5,0.8,2.5c0,1-0.2,1.9-0.6,2.5
			c-0.4,0.6-1,1.1-1.8,1.5c-0.8,0.3-1.6,0.5-2.6,0.5c-1,0-1.9-0.2-2.6-0.6c-0.7-0.4-1.3-0.9-1.7-1.6c-0.4-0.7-0.6-1.5-0.6-2.3
			c0-0.9,0.2-1.7,0.7-2.4c0.5-0.7,1.2-1.1,2-1.4l0.3,1.2c-0.7,0.2-1.2,0.5-1.5,1c-0.3,0.4-0.5,0.9-0.5,1.6c0,0.7,0.2,1.3,0.5,1.8
			c0.4,0.5,0.8,0.8,1.4,1c0.6,0.2,1.2,0.3,1.8,0.3c0.8,0,1.5-0.1,2.1-0.3c0.6-0.2,1.1-0.6,1.4-1.1c0.3-0.5,0.4-1,0.4-1.6
			c0-0.7-0.2-1.3-0.6-1.8S37.1,132.4,36.3,132.2z M39.7,129.3h-9.5v-6.9h1.1v5.6h2.9v-5.3h1.1v5.3h3.2v-5.9h1.1V129.3z"/>
		<path class="st3" d="M232,204.8v17.8h10.7l-17.2,12.5l-17.2-12.5h10.7v-17.8H232z"/>
		<path class="st9" d="M232,204.8v17.8h10.7l-17.2,12.5l-17.2-12.5h10.7v-17.8H232z"/>
		<path class="st10" d="M1,447.4v-80.5c0-4.4,1.8-8.6,4.9-11.8c3.1-3.1,7.3-4.9,11.8-4.9h32.3c0,0,0,0,0,0l0,113.8l0,0c0,0,0,0,0,0
			l-32.3,0l0,0C8.4,464,1,456.5,1,447.4z"/>
		<path class="st2" d="M1,447.4v-80.5c0-4.4,1.8-8.6,4.9-11.8c3.1-3.1,7.3-4.9,11.8-4.9h32.3c0,0,0,0,0,0l0,113.8l0,0c0,0,0,0,0,0
			l-32.3,0l0,0C8.4,464,1,456.5,1,447.4z"/>
		<path class="st7" d="M4.4,470.5V348.6h42v121.9H4.4z"/>
		<path class="st11" d="M21.2,443h-9.5v-3.6c0-0.7,0.1-1.3,0.3-1.8c0.2-0.4,0.5-0.8,0.9-1s0.8-0.4,1.3-0.4c0.4,0,0.8,0.1,1.2,0.3
			c0.4,0.2,0.6,0.5,0.9,1c0.2-0.6,0.5-1,0.9-1.3c0.4-0.3,0.9-0.5,1.4-0.5c0.4,0,0.9,0.1,1.2,0.3c0.4,0.2,0.7,0.4,0.9,0.7
			c0.2,0.3,0.4,0.6,0.5,1c0.1,0.4,0.2,0.9,0.2,1.5V443z M15.7,441.7v-2.1c0-0.6,0-1-0.1-1.2c-0.1-0.3-0.2-0.6-0.5-0.7
			c-0.2-0.2-0.5-0.2-0.8-0.2c-0.3,0-0.6,0.1-0.8,0.2c-0.2,0.1-0.4,0.4-0.5,0.6s-0.1,0.8-0.1,1.5v1.9H15.7z M20.1,441.7v-2.4
			c0-0.4,0-0.7,0-0.9c-0.1-0.3-0.1-0.5-0.2-0.7c-0.1-0.2-0.3-0.4-0.5-0.5c-0.2-0.1-0.5-0.2-0.8-0.2c-0.4,0-0.7,0.1-0.9,0.3
			c-0.3,0.2-0.5,0.4-0.6,0.8c-0.1,0.3-0.2,0.8-0.2,1.4v2.2H20.1z M21.2,435.1l-9.5-3.7v-1.4l9.5-3.9v1.4l-2.9,1.1v4l2.9,1V435.1z
			 M17.3,432.3v-3.2l-2.6,1c-0.8,0.3-1.5,0.5-2,0.7c0.6,0.1,1.2,0.3,1.8,0.5L17.3,432.3z M17.9,418.4l0.3-1.3c1,0.3,1.8,0.7,2.4,1.4
			c0.5,0.7,0.8,1.5,0.8,2.5c0,1-0.2,1.9-0.6,2.5c-0.4,0.6-1,1.1-1.8,1.5c-0.8,0.3-1.6,0.5-2.6,0.5c-1,0-1.9-0.2-2.6-0.6
			c-0.7-0.4-1.3-0.9-1.7-1.6c-0.4-0.7-0.6-1.5-0.6-2.3c0-0.9,0.2-1.7,0.7-2.4c0.5-0.7,1.2-1.1,2-1.4l0.3,1.2c-0.7,0.2-1.2,0.5-1.5,1
			c-0.3,0.4-0.5,0.9-0.5,1.6c0,0.7,0.2,1.3,0.5,1.8c0.4,0.5,0.8,0.8,1.4,1c0.6,0.2,1.2,0.3,1.8,0.3c0.8,0,1.5-0.1,2.1-0.3
			c0.6-0.2,1.1-0.6,1.4-1.1c0.3-0.5,0.4-1,0.4-1.6c0-0.7-0.2-1.3-0.6-1.8S18.7,418.5,17.9,418.4z M21.2,415.6h-9.5v-1.3h4.7
			l-4.7-4.7v-1.7l3.9,4l5.7-4.2v1.7l-4.8,3.4l1.5,1.6h3.3V415.6z M18.4,407.3h-1.2v-3.6h1.2V407.3z M21.2,402.2h-9.5v-6.9h1.1v5.6
			h2.9v-5.3h1.1v5.3h3.2v-5.9h1.1V402.2z M21.2,393.3h-9.5V392l7.5-5h-7.5v-1.2h9.5v1.3l-7.5,5h7.5V393.3z M21.2,383.7h-9.5v-3.3
			c0-0.7,0-1.3,0.1-1.7c0.1-0.5,0.4-1,0.7-1.4c0.4-0.5,1-0.9,1.6-1.1c0.7-0.3,1.4-0.4,2.2-0.4c0.7,0,1.4,0.1,1.9,0.3
			c0.6,0.2,1,0.4,1.4,0.7c0.4,0.3,0.7,0.5,0.9,0.9c0.2,0.3,0.4,0.7,0.5,1.1c0.1,0.4,0.2,0.9,0.2,1.5V383.7z M20.1,382.4v-2
			c0-0.6-0.1-1.1-0.2-1.5c-0.1-0.4-0.3-0.7-0.5-0.9c-0.3-0.3-0.7-0.5-1.2-0.7c-0.5-0.2-1.1-0.3-1.8-0.2c-1,0-1.8,0.2-2.3,0.5
			c-0.5,0.3-0.9,0.7-1.1,1.2c-0.1,0.3-0.2,0.9-0.2,1.6v2H20.1z"/>
		<path class="st11" d="M37.2,441.5h-9.5v-1.9l6.8-2.2c0.6-0.2,1.1-0.4,1.4-0.5c-0.3-0.1-0.9-0.3-1.5-0.5l-6.6-2.3v-1.7h9.5v1.2h-8
			l8,2.8v1.1l-8.1,2.8h8.1V441.5z M32.6,430.7c-1.6,0-2.8-0.4-3.7-1.3s-1.3-2-1.3-3.3c0-0.9,0.2-1.7,0.6-2.4c0.4-0.7,1-1.2,1.8-1.6
			c0.8-0.4,1.6-0.6,2.6-0.6s1.8,0.2,2.6,0.6c0.8,0.4,1.3,0.9,1.7,1.7c0.4,0.7,0.6,1.5,0.6,2.3c0,0.9-0.2,1.7-0.6,2.4
			c-0.4,0.7-1,1.2-1.8,1.6S33.4,430.7,32.6,430.7z M32.6,429.4c1.1,0,2.1-0.3,2.7-0.9c0.7-0.6,1-1.4,1-2.3c0-0.9-0.3-1.7-1-2.3
			s-1.6-0.9-2.8-0.9c-0.8,0-1.4,0.1-2,0.4c-0.6,0.3-1,0.6-1.3,1.2c-0.3,0.5-0.5,1.1-0.5,1.7c0,0.9,0.3,1.7,0.9,2.3
			C30.1,429.1,31.2,429.4,32.6,429.4z M37.2,420h-9.5v-3.3c0-0.7,0-1.3,0.1-1.7c0.1-0.5,0.4-1,0.7-1.4c0.4-0.5,1-0.9,1.6-1.1
			c0.7-0.2,1.4-0.4,2.2-0.4c0.7,0,1.4,0.1,1.9,0.3c0.6,0.2,1,0.4,1.4,0.7c0.4,0.3,0.7,0.5,0.9,0.9s0.4,0.7,0.5,1.1
			c0.1,0.4,0.2,0.9,0.2,1.5V420z M36.1,418.7v-2c0-0.6-0.1-1.1-0.2-1.5c-0.1-0.4-0.3-0.7-0.5-0.9c-0.3-0.3-0.7-0.5-1.2-0.7
			c-0.5-0.2-1.1-0.2-1.8-0.2c-1,0-1.8,0.2-2.3,0.5c-0.5,0.3-0.9,0.7-1.1,1.2c-0.1,0.3-0.2,0.9-0.2,1.6v2H36.1z M27.7,404.1v-1.3h5.5
			c1,0,1.7,0.1,2.3,0.3c0.6,0.2,1,0.6,1.4,1.2c0.3,0.6,0.5,1.3,0.5,2.2c0,0.9-0.2,1.6-0.5,2.2c-0.3,0.6-0.8,1-1.3,1.2
			c-0.6,0.2-1.4,0.4-2.4,0.4h-5.5v-1.3h5.5c0.8,0,1.4-0.1,1.8-0.2c0.4-0.2,0.7-0.4,0.9-0.8c0.2-0.4,0.3-0.8,0.3-1.4
			c0-0.9-0.2-1.6-0.6-2c-0.4-0.4-1.2-0.6-2.4-0.6H27.7z M37.2,400.8h-9.5v-1.3h8.4v-4.7h1.1V400.8z M37.2,393.3h-9.5v-6.9h1.1v5.6
			h2.9v-5.3h1.1v5.3h3.2v-5.9h1.1V393.3z M34.2,384.9l-0.1-1.2c0.5-0.1,0.9-0.2,1.2-0.4c0.3-0.2,0.5-0.5,0.7-1
			c0.2-0.4,0.3-0.9,0.3-1.5c0-0.5-0.1-0.9-0.2-1.3c-0.1-0.4-0.3-0.7-0.6-0.8c-0.2-0.2-0.5-0.3-0.8-0.3s-0.6,0.1-0.8,0.3
			c-0.2,0.2-0.4,0.4-0.6,0.8c-0.1,0.3-0.3,0.8-0.5,1.7s-0.4,1.5-0.6,1.8c-0.2,0.4-0.5,0.8-0.9,1c-0.4,0.2-0.8,0.3-1.2,0.3
			c-0.5,0-0.9-0.1-1.3-0.4c-0.4-0.3-0.7-0.7-1-1.2c-0.2-0.5-0.3-1.1-0.3-1.8c0-0.7,0.1-1.3,0.3-1.9c0.2-0.5,0.6-1,1-1.2
			c0.4-0.3,0.9-0.4,1.5-0.5l0.1,1.2c-0.6,0.1-1.1,0.3-1.4,0.7c-0.3,0.4-0.5,0.9-0.5,1.7c0,0.8,0.1,1.3,0.4,1.7
			c0.3,0.3,0.6,0.5,1,0.5c0.3,0,0.6-0.1,0.8-0.4c0.2-0.2,0.4-0.9,0.7-1.9c0.2-1,0.4-1.7,0.6-2.1c0.3-0.6,0.6-1,1-1.2
			c0.4-0.3,0.8-0.4,1.4-0.4c0.5,0,1,0.1,1.4,0.4c0.4,0.3,0.8,0.7,1,1.2c0.2,0.5,0.4,1.2,0.4,1.8c0,0.9-0.1,1.6-0.4,2.2
			c-0.2,0.6-0.6,1-1.1,1.4C35.4,384.7,34.8,384.8,34.2,384.9z"/>
		<path class="st3" d="M307.1,82.7v17.8h10.7L300.6,113l-17.2-12.5H294V82.7H307.1z"/>
		<path class="st9" d="M307.1,82.7v17.8h10.7L300.6,113l-17.2-12.5H294V82.7H307.1z"/>
		<path class="st5" d="M281,375.4L281,375.4c0-8.4,6.8-15.1,15.1-15.1h68.9c4,0,7.9,1.6,10.7,4.4s4.4,6.7,4.4,10.7V436
			c0,8.4-6.8,15.1-15.1,15.1h-68.9c-8.4,0-15.1-6.8-15.1-15.1V375.4z"/>
		<path class="st7" d="M311.9,370h37.4v56.3h-37.4V370z"/>
		<g transform="matrix(0.18708923884514436 0.0 0.0 0.18708897637795277 410.17035774278213 397.5571687664042)">
			<g>
				<defs>
					<rect id="SVGID_13_" x="-444" y="-24.8" width="37.4" height="56.3"/>
				</defs>
				<clipPath id="SVGID_14_">
					<use xlink:href="#SVGID_13_"  style="overflow:visible;"/>
				</clipPath>
				<g style="clip-path:url(#SVGID_14_);enable-background:new    ;">
					
						<image style="overflow:visible;" width="200" height="301" xlink:href="C2F20A8830E5D7C0.png"  transform="matrix(1 0 0 1 -525.3229 -147.1234)">
					</image>
				</g>
			</g>
		</g>
		<path class="st7" d="M283.5,426.6h94.1v22.6h-94.1V426.6z"/>
		<path class="st8" d="M298.8,438.2l1,0.2c-0.2,0.8-0.6,1.5-1.2,1.9c-0.5,0.4-1.2,0.6-2,0.6c-0.8,0-1.5-0.2-2-0.5
			c-0.5-0.3-0.9-0.8-1.2-1.5c-0.3-0.6-0.4-1.3-0.4-2c0-0.8,0.2-1.5,0.5-2.1c0.3-0.6,0.7-1,1.3-1.3c0.6-0.3,1.2-0.5,1.8-0.5
			c0.8,0,1.4,0.2,1.9,0.6c0.5,0.4,0.9,0.9,1.1,1.6l-1,0.2c-0.2-0.6-0.4-1-0.8-1.2c-0.3-0.2-0.8-0.4-1.3-0.4c-0.6,0-1.1,0.1-1.5,0.4
			c-0.4,0.3-0.7,0.7-0.8,1.1c-0.2,0.5-0.2,1-0.2,1.5c0,0.6,0.1,1.2,0.3,1.7c0.2,0.5,0.5,0.8,0.9,1.1c0.4,0.2,0.8,0.4,1.3,0.4
			c0.6,0,1-0.2,1.4-0.5C298.4,439.3,298.7,438.8,298.8,438.2z M300.8,437.1c0-1.3,0.3-2.2,1-3c0.7-0.7,1.6-1.1,2.6-1.1
			c0.7,0,1.3,0.2,1.9,0.5c0.6,0.3,1,0.8,1.3,1.4c0.3,0.6,0.5,1.3,0.5,2c0,0.8-0.2,1.5-0.5,2.1c-0.3,0.6-0.8,1.1-1.3,1.4
			c-0.6,0.3-1.2,0.5-1.9,0.5c-0.7,0-1.4-0.2-1.9-0.5c-0.6-0.3-1-0.8-1.3-1.4C300.9,438.4,300.8,437.8,300.8,437.1z M301.8,437.1
			c0,0.9,0.2,1.6,0.7,2.2c0.5,0.5,1.1,0.8,1.9,0.8c0.8,0,1.4-0.3,1.9-0.8c0.5-0.5,0.7-1.3,0.7-2.3c0-0.6-0.1-1.2-0.3-1.6
			c-0.2-0.5-0.5-0.8-0.9-1.1c-0.4-0.3-0.9-0.4-1.4-0.4c-0.7,0-1.3,0.2-1.8,0.7C302.1,435.2,301.8,436,301.8,437.1z M309.3,440.8
			v-7.6h1l4,6v-6h1v7.6h-1l-4-6v6H309.3z M319.2,440.8l-3-7.6h1.1l2,5.5c0.2,0.4,0.3,0.9,0.4,1.2c0.1-0.4,0.3-0.8,0.4-1.2l2.1-5.5h1
			l-3,7.6H319.2z M324.2,440.8v-7.6h5.5v0.9h-4.5v2.3h4.2v0.9h-4.2v2.6h4.7v0.9H324.2z M331.3,440.8v-7.6h3.4c0.7,0,1.2,0.1,1.5,0.2
			c0.4,0.1,0.6,0.4,0.8,0.7c0.2,0.3,0.3,0.7,0.3,1.1c0,0.5-0.2,1-0.5,1.4c-0.3,0.4-0.9,0.6-1.6,0.7c0.3,0.1,0.5,0.3,0.6,0.4
			c0.3,0.3,0.6,0.6,0.8,1l1.3,2.1h-1.3l-1-1.6c-0.3-0.5-0.5-0.8-0.7-1c-0.2-0.2-0.4-0.4-0.5-0.5c-0.1-0.1-0.3-0.2-0.5-0.2
			c-0.1,0-0.3,0-0.6,0h-1.2v3.4H331.3z M332.3,436.6h2.2c0.5,0,0.8,0,1.1-0.1c0.3-0.1,0.5-0.2,0.6-0.5c0.1-0.2,0.2-0.4,0.2-0.7
			c0-0.4-0.1-0.7-0.4-0.9c-0.3-0.2-0.7-0.3-1.2-0.3h-2.4V436.6z M340.7,440.8v-6.7h-2.5v-0.9h6v0.9h-2.5v6.7H340.7z M345.3,440.8
			v-7.6h5.5v0.9h-4.5v2.3h4.2v0.9h-4.2v2.6h4.7v0.9H345.3z M352.4,440.8v-7.6h3.4c0.7,0,1.2,0.1,1.5,0.2c0.4,0.1,0.6,0.4,0.8,0.7
			c0.2,0.3,0.3,0.7,0.3,1.1c0,0.5-0.2,1-0.5,1.4c-0.3,0.4-0.9,0.6-1.6,0.7c0.3,0.1,0.5,0.3,0.6,0.4c0.3,0.3,0.6,0.6,0.8,1l1.3,2.1
			h-1.3l-1-1.6c-0.3-0.5-0.5-0.8-0.7-1c-0.2-0.2-0.4-0.4-0.5-0.5c-0.1-0.1-0.3-0.2-0.5-0.2c-0.1,0-0.3,0-0.6,0h-1.2v3.4H352.4z
			 M353.4,436.6h2.2c0.5,0,0.8,0,1.1-0.1c0.3-0.1,0.5-0.2,0.6-0.5c0.1-0.2,0.2-0.4,0.2-0.7c0-0.4-0.1-0.7-0.4-0.9
			c-0.3-0.2-0.7-0.3-1.2-0.3h-2.4V436.6z"/>
		<path class="st7" d="M267.2,0h61.1v47.9h-61.1V0z"/>
		<g transform="matrix(0.1787540682414698 0.0 0.0 0.17876010498687664 365.52250446194216 27.525164566929142)">
			<g>
				<defs>
					<rect id="SVGID_15_" x="-409.4" y="-43.9" width="61.1" height="47.9"/>
				</defs>
				<clipPath id="SVGID_16_">
					<use xlink:href="#SVGID_15_"  style="overflow:visible;"/>
				</clipPath>
				<g style="clip-path:url(#SVGID_16_);enable-background:new    ;">
					
						<image style="overflow:visible;" width="342" height="268" xlink:href="C2F20A8830E5D7C1.png"  transform="matrix(1 0 0 1 -549.8179 -153.9783)">
					</image>
				</g>
			</g>
		</g>
		<path class="st7" d="M256.4,48h88.4v22.6h-88.4V48z"/>
		<path class="st8" d="M281.5,59.8l1-0.1c0,0.4,0.1,0.7,0.3,0.9c0.2,0.2,0.4,0.4,0.8,0.6c0.3,0.1,0.7,0.2,1.2,0.2
			c0.4,0,0.7-0.1,1-0.2c0.3-0.1,0.5-0.3,0.7-0.5c0.1-0.2,0.2-0.4,0.2-0.7c0-0.2-0.1-0.4-0.2-0.6c-0.1-0.2-0.4-0.3-0.7-0.4
			c-0.2-0.1-0.7-0.2-1.4-0.4c-0.7-0.2-1.2-0.3-1.5-0.5c-0.4-0.2-0.6-0.4-0.8-0.7c-0.2-0.3-0.3-0.6-0.3-1c0-0.4,0.1-0.7,0.3-1.1
			c0.2-0.3,0.5-0.6,1-0.8c0.4-0.2,0.9-0.3,1.4-0.3c0.6,0,1.1,0.1,1.5,0.3c0.4,0.2,0.8,0.4,1,0.8c0.2,0.4,0.4,0.8,0.4,1.2l-1,0.1
			c-0.1-0.5-0.2-0.8-0.5-1.1s-0.7-0.4-1.3-0.4c-0.6,0-1.1,0.1-1.3,0.3c-0.3,0.2-0.4,0.5-0.4,0.8c0,0.3,0.1,0.5,0.3,0.7
			c0.2,0.2,0.7,0.4,1.5,0.5s1.4,0.3,1.7,0.5c0.4,0.2,0.8,0.5,1,0.8s0.3,0.7,0.3,1.1s-0.1,0.8-0.3,1.2c-0.2,0.4-0.6,0.6-1,0.8
			c-0.4,0.2-0.9,0.3-1.5,0.3c-0.7,0-1.3-0.1-1.8-0.3c-0.5-0.2-0.8-0.5-1.1-0.9C281.7,60.8,281.5,60.3,281.5,59.8z M294.4,59.6l1,0.2
			c-0.2,0.8-0.6,1.5-1.2,1.9c-0.5,0.4-1.2,0.6-2,0.6c-0.8,0-1.5-0.2-2-0.5c-0.5-0.3-0.9-0.8-1.2-1.5c-0.3-0.6-0.4-1.3-0.4-2
			c0-0.8,0.2-1.5,0.5-2.1c0.3-0.6,0.7-1,1.3-1.3c0.6-0.3,1.2-0.5,1.8-0.5c0.8,0,1.4,0.2,1.9,0.6c0.5,0.4,0.9,0.9,1.1,1.6l-1,0.2
			c-0.2-0.6-0.4-1-0.8-1.2c-0.3-0.2-0.8-0.4-1.3-0.4c-0.6,0-1.1,0.1-1.5,0.4c-0.4,0.3-0.7,0.7-0.8,1.1c-0.2,0.5-0.2,1-0.2,1.5
			c0,0.6,0.1,1.2,0.3,1.7c0.2,0.5,0.5,0.8,0.9,1.1c0.4,0.2,0.8,0.4,1.3,0.4c0.6,0,1-0.2,1.4-0.5C294,60.7,294.3,60.2,294.4,59.6z
			 M296.7,62.3v-7.6h3.4c0.7,0,1.2,0.1,1.5,0.2c0.4,0.1,0.6,0.4,0.8,0.7c0.2,0.3,0.3,0.7,0.3,1.1c0,0.5-0.2,1-0.5,1.4
			c-0.3,0.4-0.9,0.6-1.6,0.7c0.3,0.1,0.5,0.2,0.6,0.4c0.3,0.3,0.6,0.6,0.8,1l1.3,2.1h-1.3l-1-1.6c-0.3-0.5-0.5-0.8-0.7-1
			c-0.2-0.2-0.4-0.4-0.5-0.5c-0.1-0.1-0.3-0.2-0.5-0.2c-0.1,0-0.3,0-0.6,0h-1.2v3.4H296.7z M297.7,58h2.2c0.5,0,0.8,0,1.1-0.1
			s0.5-0.2,0.6-0.5c0.1-0.2,0.2-0.4,0.2-0.7c0-0.4-0.1-0.7-0.4-0.9c-0.3-0.2-0.7-0.3-1.2-0.3h-2.4V58z M304.5,62.3v-7.6h1v7.6H304.5
			z M307.3,62.3v-7.6h2.9c0.5,0,0.9,0,1.2,0.1c0.4,0.1,0.7,0.2,0.9,0.4c0.3,0.2,0.5,0.4,0.6,0.8c0.2,0.3,0.2,0.7,0.2,1
			c0,0.6-0.2,1.2-0.6,1.7c-0.4,0.4-1.2,0.7-2.2,0.7h-2v3.1H307.3z M308.3,58.3h2c0.7,0,1.1-0.1,1.4-0.4c0.3-0.2,0.4-0.6,0.4-1
			c0-0.3-0.1-0.6-0.2-0.8c-0.2-0.2-0.4-0.4-0.6-0.5c-0.2-0.1-0.5-0.1-0.9-0.1h-2V58.3z M316.4,62.3v-6.7h-2.5v-0.9h6v0.9h-2.5v6.7
			H316.4z"/>
		<path class="st8" d="M278.6,75.3v-7.6h1v6.7h3.8v0.9H278.6z M284.8,75.3v-7.6h1v7.6H284.8z M287.5,75.3v-7.6h2.9
			c0.6,0,1.1,0.1,1.4,0.2c0.4,0.1,0.6,0.4,0.8,0.7c0.2,0.3,0.3,0.7,0.3,1c0,0.3-0.1,0.6-0.3,0.9c-0.2,0.3-0.4,0.5-0.8,0.7
			c0.5,0.1,0.8,0.4,1.1,0.7c0.2,0.3,0.4,0.7,0.4,1.1c0,0.4-0.1,0.7-0.2,1c-0.1,0.3-0.3,0.5-0.6,0.7c-0.2,0.2-0.5,0.3-0.8,0.4
			c-0.3,0.1-0.7,0.1-1.2,0.1H287.5z M288.5,70.9h1.6c0.4,0,0.8,0,1-0.1c0.2-0.1,0.4-0.2,0.6-0.4c0.1-0.2,0.2-0.4,0.2-0.7
			c0-0.2-0.1-0.5-0.2-0.7c-0.1-0.2-0.3-0.3-0.5-0.4c-0.2-0.1-0.6-0.1-1.2-0.1h-1.5V70.9z M288.5,74.4h1.9c0.3,0,0.6,0,0.7,0
			c0.2,0,0.4-0.1,0.6-0.2c0.2-0.1,0.3-0.2,0.4-0.4c0.1-0.2,0.2-0.4,0.2-0.7c0-0.3-0.1-0.5-0.2-0.7c-0.1-0.2-0.3-0.4-0.6-0.4
			c-0.3-0.1-0.6-0.1-1.1-0.1h-1.8V74.4z M294.7,75.3v-7.6h3.4c0.7,0,1.2,0.1,1.5,0.2c0.4,0.1,0.6,0.4,0.8,0.7
			c0.2,0.3,0.3,0.7,0.3,1.1c0,0.5-0.2,1-0.5,1.4c-0.3,0.4-0.9,0.6-1.6,0.7c0.3,0.1,0.5,0.2,0.6,0.4c0.3,0.3,0.6,0.6,0.8,1l1.3,2.1
			h-1.3l-1-1.6c-0.3-0.5-0.5-0.8-0.7-1c-0.2-0.2-0.4-0.4-0.5-0.5c-0.1-0.1-0.3-0.2-0.5-0.2c-0.1,0-0.3,0-0.6,0h-1.2v3.4H294.7z
			 M295.7,71h2.2c0.5,0,0.8,0,1.1-0.1c0.3-0.1,0.5-0.2,0.6-0.5c0.1-0.2,0.2-0.4,0.2-0.7c0-0.4-0.1-0.7-0.4-0.9
			c-0.3-0.2-0.7-0.3-1.2-0.3h-2.4V71z M301.5,75.3l2.9-7.6h1.1l3.1,7.6h-1.2l-0.9-2.3h-3.2l-0.8,2.3H301.5z M303.7,72.2h2.6
			l-0.8-2.1c-0.2-0.6-0.4-1.2-0.5-1.6c-0.1,0.5-0.2,1-0.4,1.5L303.7,72.2z M309.5,75.3v-7.6h3.4c0.7,0,1.2,0.1,1.5,0.2
			c0.4,0.1,0.6,0.4,0.8,0.7c0.2,0.3,0.3,0.7,0.3,1.1c0,0.5-0.2,1-0.5,1.4c-0.3,0.4-0.9,0.6-1.6,0.7c0.3,0.1,0.5,0.2,0.6,0.4
			c0.3,0.3,0.6,0.6,0.8,1l1.3,2.1H315l-1-1.6c-0.3-0.5-0.5-0.8-0.7-1c-0.2-0.2-0.4-0.4-0.5-0.5c-0.1-0.1-0.3-0.2-0.5-0.2
			c-0.1,0-0.3,0-0.6,0h-1.2v3.4H309.5z M310.5,71h2.2c0.5,0,0.8,0,1.1-0.1c0.3-0.1,0.5-0.2,0.6-0.5c0.1-0.2,0.2-0.4,0.2-0.7
			c0-0.4-0.1-0.7-0.4-0.9c-0.3-0.2-0.7-0.3-1.2-0.3h-2.4V71z M319.1,75.3V72l-2.9-4.4h1.2l1.5,2.3c0.3,0.4,0.5,0.9,0.8,1.3
			c0.2-0.4,0.5-0.9,0.8-1.4l1.5-2.2h1.2l-3,4.4v3.2H319.1z"/>
	</g>
</g>
</svg>
