<?xml version="1.0" encoding="utf-8"?>
<!-- Generator: Adobe Illustrator 25.2.3, SVG Export Plug-In . SVG Version: 6.00 Build 0)  -->
<svg version="1.1" xmlns="http://www.w3.org/2000/svg" xmlns:xlink="http://www.w3.org/1999/xlink" x="0px" y="0px"
	 viewBox="0 0 88.8 55.8" style="enable-background:new 0 0 88.8 55.8;" xml:space="preserve">
<style type="text/css">
	.st0{fill:#FFCB06;}
</style>
<g id="Layer_1">
</g>
<g id="Layer_2">
	<g id="Layer_4_1_">
		<g>
			<g>
				<g>
					<g>
						<path class="st0" d="M34.7,21.2h1.9v10.2h-1.9V21.2z"/>
						<path class="st0" d="M38.1,27.5c0-2.3,1.6-4.1,4.3-4.1c2.7,0,4.2,1.8,4.2,4.1c0,2.3-1.6,4.1-4.3,4.1
							C39.7,31.6,38.1,29.8,38.1,27.5z M44.8,27.5c0-1.5-0.9-2.6-2.5-2.6c-1.5,0-2.5,1.1-2.5,2.6c0,1.5,0.9,2.6,2.5,2.6
							C43.8,30.1,44.8,29,44.8,27.5z"/>
						<path class="st0" d="M49.4,23h-3.9l0.1-1.7H55l0.1,1.7h-3.9v8.4h-1.9V23z"/>
					</g>
				</g>
				<g>
					<path class="st0" d="M55.5,42.3H32c-1.8,0-3.3-1.5-3.3-3.3V15.4c0-1.8,1.5-3.3,3.3-3.3h23.5c1.8,0,3.3,1.5,3.3,3.3v23.5
						C58.8,40.8,57.3,42.3,55.5,42.3z M32,14.1c-0.7,0-1.3,0.6-1.3,1.3v23.5c0,0.7,0.6,1.3,1.3,1.3h23.5c0.7,0,1.3-0.6,1.3-1.3V15.4
						c0-0.7-0.6-1.3-1.3-1.3H32z"/>
				</g>
			</g>
			<g>
				<g>
					<g>
						<path class="st0" d="M49.7,8.8c-0.3,0-0.5-0.1-0.7-0.3c-2.9-2.9-7.6-2.9-10.5,0c-0.4,0.4-1,0.4-1.4,0s-0.4-1,0-1.4
							c3.7-3.7,9.6-3.7,13.3,0c0.4,0.4,0.4,1,0,1.4C50.2,8.7,49.9,8.8,49.7,8.8z"/>
					</g>
				</g>
				<g>
					<g>
						<path class="st0" d="M34.8,5.7c-0.3,0-0.5-0.1-0.7-0.3c-0.4-0.4-0.4-1,0-1.4c5.3-5.3,14-5.3,19.3,0c0.4,0.4,0.4,1,0,1.4
							s-1,0.4-1.4,0c-4.5-4.5-11.9-4.5-16.4,0C35.3,5.6,35.1,5.7,34.8,5.7z"/>
					</g>
				</g>
			</g>
			<g>
				<path class="st0" d="M17.1,12.8c-3.5,0-6.4-2.9-6.4-6.4S13.6,0,17.1,0c3.5,0,6.4,2.9,6.4,6.4S20.7,12.8,17.1,12.8z M17.1,2
					c-2.4,0-4.4,2-4.4,4.4s2,4.4,4.4,4.4c2.4,0,4.4-2,4.4-4.4S19.6,2,17.1,2z"/>
			</g>
			<g>
				<path class="st0" d="M17.1,55.8c-3.5,0-6.4-2.9-6.4-6.4s2.9-6.4,6.4-6.4c3.5,0,6.4,2.9,6.4,6.4S20.7,55.8,17.1,55.8z M17.1,45
					c-2.4,0-4.4,2-4.4,4.4s2,4.4,4.4,4.4c2.4,0,4.4-2,4.4-4.4S19.6,45,17.1,45z"/>
			</g>
			<g>
				<path class="st0" d="M6.4,34.3c-3.5,0-6.4-2.9-6.4-6.4s2.9-6.4,6.4-6.4s6.4,2.9,6.4,6.4S9.9,34.3,6.4,34.3z M6.4,23.5
					c-2.4,0-4.4,2-4.4,4.4s2,4.4,4.4,4.4s4.4-2,4.4-4.4S8.8,23.5,6.4,23.5z"/>
			</g>
			<g>
				<path class="st0" d="M71.7,55.8c-3.5,0-6.4-2.9-6.4-6.4s2.9-6.4,6.4-6.4c3.5,0,6.4,2.9,6.4,6.4S75.2,55.8,71.7,55.8z M71.7,45
					c-2.4,0-4.4,2-4.4,4.4s2,4.4,4.4,4.4c2.4,0,4.4-2,4.4-4.4S74.1,45,71.7,45z"/>
			</g>
			<g>
				<path class="st0" d="M71.7,12.8c-3.5,0-6.4-2.9-6.4-6.4S68.2,0,71.7,0C75.2,0,78,2.9,78,6.4S75.2,12.8,71.7,12.8z M71.7,2
					c-2.4,0-4.4,2-4.4,4.4s2,4.4,4.4,4.4c2.4,0,4.4-2,4.4-4.4S74.1,2,71.7,2z"/>
			</g>
			<g>
				<path class="st0" d="M82.4,34.3c-3.5,0-6.4-2.9-6.4-6.4s2.9-6.4,6.4-6.4s6.4,2.9,6.4,6.4S85.9,34.3,82.4,34.3z M82.4,23.5
					c-2.4,0-4.4,2-4.4,4.4s2,4.4,4.4,4.4s4.4-2,4.4-4.4S84.8,23.5,82.4,23.5z"/>
			</g>
			<g>
				<path class="st0" d="M28.8,28.4h-1c-0.3,0-0.5-0.2-0.5-0.5s0.2-0.5,0.5-0.5h1c0.3,0,0.5,0.2,0.5,0.5S29,28.4,28.8,28.4z
					 M24.8,28.4h-1c-0.3,0-0.5-0.2-0.5-0.5s0.2-0.5,0.5-0.5h1c0.3,0,0.5,0.2,0.5,0.5S25,28.4,24.8,28.4z M20.8,28.4h-1
					c-0.3,0-0.5-0.2-0.5-0.5s0.2-0.5,0.5-0.5h1c0.3,0,0.5,0.2,0.5,0.5S21,28.4,20.8,28.4z M16.8,28.4h-1c-0.3,0-0.5-0.2-0.5-0.5
					s0.2-0.5,0.5-0.5h1c0.3,0,0.5,0.2,0.5,0.5S17,28.4,16.8,28.4z M12.8,28.4h-1c-0.3,0-0.5-0.2-0.5-0.5s0.2-0.5,0.5-0.5h1
					c0.3,0,0.5,0.2,0.5,0.5S13,28.4,12.8,28.4z"/>
			</g>
			<g>
				<path class="st0" d="M77,28.4h-1c-0.3,0-0.5-0.2-0.5-0.5s0.2-0.5,0.5-0.5h1c0.3,0,0.5,0.2,0.5,0.5S77.3,28.4,77,28.4z M73,28.4
					h-1c-0.3,0-0.5-0.2-0.5-0.5s0.2-0.5,0.5-0.5h1c0.3,0,0.5,0.2,0.5,0.5S73.3,28.4,73,28.4z M69,28.4h-1c-0.3,0-0.5-0.2-0.5-0.5
					s0.2-0.5,0.5-0.5h1c0.3,0,0.5,0.2,0.5,0.5S69.3,28.4,69,28.4z M65,28.4h-1c-0.3,0-0.5-0.2-0.5-0.5s0.2-0.5,0.5-0.5h1
					c0.3,0,0.5,0.2,0.5,0.5S65.3,28.4,65,28.4z M61,28.4h-1c-0.3,0-0.5-0.2-0.5-0.5s0.2-0.5,0.5-0.5h1c0.3,0,0.5,0.2,0.5,0.5
					S61.3,28.4,61,28.4z"/>
			</g>
			<g>
				<path class="st0" d="M66.4,46.6c-0.1,0-0.2,0-0.3-0.1l-0.8-0.6c-0.2-0.2-0.3-0.5-0.1-0.7c0.2-0.2,0.5-0.3,0.7-0.1l0.8,0.6
					c0.2,0.2,0.3,0.5,0.1,0.7C66.7,46.5,66.6,46.6,66.4,46.6z M63.2,44.2c-0.1,0-0.2,0-0.3-0.1l-0.8-0.6c-0.2-0.2-0.3-0.5-0.1-0.7
					c0.2-0.2,0.5-0.3,0.7-0.1l0.8,0.6c0.2,0.2,0.3,0.5,0.1,0.7C63.5,44.1,63.4,44.2,63.2,44.2z M60,41.8c-0.1,0-0.2,0-0.3-0.1
					l-0.8-0.6c-0.2-0.2-0.3-0.5-0.1-0.7c0.2-0.2,0.5-0.3,0.7-0.1l0.8,0.6c0.2,0.2,0.3,0.5,0.1,0.7C60.3,41.7,60.2,41.8,60,41.8z"/>
			</g>
			<g>
				<path class="st0" d="M21,46.6c-0.2,0-0.3-0.1-0.4-0.2c-0.2-0.2-0.1-0.5,0.1-0.7l0.8-0.6c0.2-0.2,0.5-0.1,0.7,0.1
					c0.2,0.2,0.1,0.5-0.1,0.7l-0.8,0.6C21.2,46.5,21.1,46.6,21,46.6z M24.2,44.2c-0.2,0-0.3-0.1-0.4-0.2c-0.2-0.2-0.1-0.5,0.1-0.7
					l0.8-0.6c0.2-0.2,0.5-0.1,0.7,0.1c0.2,0.2,0.1,0.5-0.1,0.7l-0.8,0.6C24.5,44.2,24.3,44.2,24.2,44.2z M27.5,41.8
					c-0.2,0-0.3-0.1-0.4-0.2c-0.2-0.2-0.1-0.5,0.1-0.7l0.8-0.6c0.2-0.2,0.5-0.1,0.7,0.1c0.2,0.2,0.1,0.5-0.1,0.7l-0.8,0.6
					C27.7,41.8,27.6,41.8,27.5,41.8z"/>
			</g>
			<g>
				<path class="st0" d="M28.3,15.8c-0.1,0-0.2,0-0.3-0.1l-0.8-0.6c-0.2-0.2-0.3-0.5-0.1-0.7c0.2-0.2,0.5-0.3,0.7-0.1l0.8,0.6
					c0.2,0.2,0.3,0.5,0.1,0.7C28.6,15.7,28.4,15.8,28.3,15.8z M25,13.4c-0.1,0-0.2,0-0.3-0.1l-0.8-0.6c-0.2-0.2-0.3-0.5-0.1-0.7
					c0.2-0.2,0.5-0.3,0.7-0.1l0.8,0.6c0.2,0.2,0.3,0.5,0.1,0.7C25.3,13.3,25.2,13.4,25,13.4z M21.8,11c-0.1,0-0.2,0-0.3-0.1
					l-0.8-0.6c-0.2-0.2-0.3-0.5-0.1-0.7s0.5-0.3,0.7-0.1l0.8,0.6c0.2,0.2,0.3,0.5,0.1,0.7C22.1,10.9,22,11,21.8,11z"/>
			</g>
			<g>
				<path class="st0" d="M59.2,15.8c-0.2,0-0.3-0.1-0.4-0.2c-0.2-0.2-0.1-0.5,0.1-0.7l0.8-0.6c0.2-0.2,0.5-0.1,0.7,0.1
					c0.2,0.2,0.1,0.5-0.1,0.7l-0.8,0.6C59.4,15.8,59.3,15.8,59.2,15.8z M62.4,13.4c-0.2,0-0.3-0.1-0.4-0.2c-0.2-0.2-0.1-0.5,0.1-0.7
					l0.8-0.6c0.2-0.2,0.5-0.1,0.7,0.1c0.2,0.2,0.1,0.5-0.1,0.7l-0.8,0.6C62.6,13.4,62.5,13.4,62.4,13.4z M65.6,11
					c-0.2,0-0.3-0.1-0.4-0.2c-0.2-0.2-0.1-0.5,0.1-0.7l0.8-0.6c0.2-0.2,0.5-0.1,0.7,0.1c0.2,0.2,0.1,0.5-0.1,0.7l-0.8,0.6
					C65.8,11,65.7,11,65.6,11z"/>
			</g>
		</g>
	</g>
</g>
</svg>
