<?xml version="1.0" encoding="utf-8"?>
<!-- Generator: Adobe Illustrator 25.4.1, SVG Export Plug-In . SVG Version: 6.00 Build 0)  -->
<svg version="1.1" id="Layer_1" xmlns="http://www.w3.org/2000/svg" xmlns:xlink="http://www.w3.org/1999/xlink" x="0px" y="0px"
	 viewBox="0 0 1746.5 255.3" style="enable-background:new 0 0 1746.5 255.3;" xml:space="preserve">
<style type="text/css">
	.st0{fill:#FA582D;}
	.st1{fill:#FFCB06;}
</style>
<g>
	<polygon class="st0" points="294.5,62.7 250.2,18.4 205.9,62.7 227.9,84.6 116.9,195.5 161.2,239.8 205.5,195.5 183.4,173.5 	"/>
	
		<rect x="49.8" y="64.7" transform="matrix(0.7074 -0.7068 0.7068 0.7074 -30.35 118.7468)" class="st0" width="156.9" height="62.6"/>
	
		<rect x="204.6" y="130.9" transform="matrix(0.7074 -0.7068 0.7068 0.7074 -31.8446 247.5284)" class="st0" width="156.9" height="62.6"/>
</g>
<rect x="419.6" width="1.8" height="252.4"/>
<g>
	<g>
		<g>
			<polygon class="st1" points="534.5,127.8 568.8,69.1 603.6,68.9 603.6,20.8 541.5,21 480.3,128 542.4,234.5 603.6,234.3 
				603.6,187.7 569.3,187.7 			"/>
			<polygon class="st1" points="672.8,127.8 638.4,187.7 603.6,187.7 603.6,68.9 638,68.9 			"/>
		</g>
		<path d="M807.6,115.9c-27.7-4.1-33.8-7.2-33.8-13.4c0-6.2,7.8-11.4,26.3-11.4c14.5,0,29.5,3.6,42.7,9c3.4,1.3,6.5,2.8,9.6,4.2
			V77.2c-0.2-0.1-0.4-0.2-0.7-0.3c-14.5-6.2-29.9-9.5-50.1-9.5c-36.1,0-59.9,16.1-59.9,36.7c0,22.9,19.3,31,57.3,36.4
			c26.7,3.8,33.3,6.7,33.3,13.4c0,7.5-9.8,12.4-31.5,12.4c-14,0-30.6-3.9-44.9-9.6c-3.5-1.4-8.2-3.6-12-5.6v27.2
			c1.1,0.5,2.3,1,3.1,1.3c16.1,6.5,34.4,10.5,55.3,10.5c35.1,0,62.2-14.2,62.2-37.5C864.5,129.6,846.4,121.5,807.6,115.9z"/>
		<path d="M1095.9,187.7h-30.8V69.8h77.2c32.4,0,49.6,14.3,49.6,38.6c0,19.1-12.6,31.7-31,36.7l36.8,42.7h-35.2l-34.2-40.4h-32.4
			V187.7z M1095.9,124.5h39c17.2,0,25.9-5.1,25.9-15.6c0-9.9-7.1-15.4-24.4-15.4h-40.4V124.5z"/>
		<path d="M1336.3,166.6h-67.7l-10.4,21.1h-32.1l60-118.7h33.6l60.2,118.7h-33.3L1336.3,166.6z M1279.2,145h46.4l-23-46.9h-0.4
			L1279.2,145z"/>
		<path d="M1640.4,166.6h-67.7l-10.4,21.1h-32.1l60-118.7h33.6l60.2,118.7h-33.3L1640.4,166.6z M1583.4,145h46.4l-23-46.9h-0.4
			L1583.4,145z"/>
		<polygon points="1670.7,69.5 1680.5,69.5 1680.5,72 1677.1,72 1677.1,81.8 1674,81.8 1674,72 1670.7,72 		"/>
		<path d="M1695.3,69.5v12.3h-2.8v-7c0-0.1,0-0.2,0-0.4l-2.8,5.5c-0.1,0.2-0.3,0.4-0.5,0.5s-0.4,0.2-0.6,0.2h-0.4
			c-0.2,0-0.5-0.1-0.6-0.2s-0.3-0.3-0.5-0.5l-2.8-5.5c0,0.1,0,0.3,0,0.4v7h-2.8V69.5h2.6c0.1,0,0.2,0,0.3,0.1c0.1,0,0.2,0.1,0.2,0.2
			c0.1,0.1,0.1,0.2,0.2,0.3l3.1,6.1c0.1,0.2,0.2,0.4,0.3,0.7c0,0.1,0.1,0.2,0.1,0.3c0.1-0.1,0.1-0.2,0.2-0.4
			c0.1-0.2,0.2-0.5,0.3-0.7l3.1-6c0.1-0.1,0.1-0.2,0.2-0.3c0.1-0.1,0.2-0.1,0.3-0.2c0.1,0,0.2,0,0.3-0.1H1695.3z"/>
		<polygon points="1390.3,94.6 1440.1,94.6 1440.1,187.7 1473,187.7 1473,94.6 1522.8,94.6 1522.8,69.2 1390.3,69.2 		"/>
		<polygon points="891.8,94.6 941.5,94.6 941.5,187.7 974.5,187.7 974.5,94.6 1024.3,94.6 1024.3,69.2 891.8,69.2 		"/>
	</g>
</g>
</svg>
