<?xml version="1.0" encoding="utf-8"?>
<!-- Generator: Adobe Illustrator 25.4.1, SVG Export Plug-In . SVG Version: 6.00 Build 0)  -->
<svg version="1.1" id="Layer_1" xmlns="http://www.w3.org/2000/svg" xmlns:xlink="http://www.w3.org/1999/xlink" x="0px" y="0px"
	 viewBox="0 0 1746.5 255.3" style="enable-background:new 0 0 1746.5 255.3;" xml:space="preserve">
<style type="text/css">
	.st0{fill:#FA582D;}
	.st1{fill:#FFFFFF;}
	.st2{fill:#FFCB06;}
</style>
<g>
	<polygon class="st0" points="294.5,62.7 250.2,18.4 205.9,62.7 227.9,84.6 116.9,195.5 161.2,239.8 205.5,195.5 183.4,173.5 	"/>
	
		<rect x="49.8" y="64.7" transform="matrix(0.7074 -0.7068 0.7068 0.7074 -30.35 118.7468)" class="st0" width="156.9" height="62.6"/>
	
		<rect x="204.6" y="130.9" transform="matrix(0.7074 -0.7068 0.7068 0.7074 -31.8446 247.5284)" class="st0" width="156.9" height="62.6"/>
</g>
<rect x="419.6" class="st1" width="1.8" height="252.4"/>
<g>
	<g>
		<g>
			<polygon class="st2" points="534.5,130.4 568.8,71.6 603.6,71.5 603.6,23.3 541.5,23.6 480.3,130.5 542.4,237.1 603.6,236.8 
				603.6,190.2 569.3,190.2 			"/>
			<polygon class="st2" points="672.8,130.4 638.4,190.2 603.6,190.2 603.6,71.5 638,71.5 			"/>
		</g>
		<path class="st1" d="M807.6,118.5c-27.7-4.1-33.8-7.2-33.8-13.4c0-6.2,7.8-11.4,26.3-11.4c14.5,0,29.5,3.6,42.7,9
			c3.4,1.3,6.5,2.8,9.6,4.2V79.7c-0.2-0.1-0.4-0.2-0.7-0.3c-14.5-6.2-29.9-9.5-50.1-9.5c-36.1,0-59.9,16.1-59.9,36.7
			c0,22.9,19.3,31,57.3,36.4c26.7,3.8,33.3,6.7,33.3,13.4c0,7.5-9.8,12.4-31.5,12.4c-14,0-30.6-3.9-44.9-9.6
			c-3.5-1.4-8.2-3.6-12-5.6v27.2c1.1,0.5,2.3,1,3.1,1.3c16.1,6.5,34.4,10.5,55.3,10.5c35.1,0,62.2-14.2,62.2-37.5
			C864.5,132.2,846.4,124,807.6,118.5z"/>
		<path class="st1" d="M1095.9,190.2h-30.8V72.3h77.2c32.4,0,49.6,14.3,49.6,38.6c0,19.1-12.6,31.7-31,36.7l36.8,42.7h-35.2
			l-34.2-40.4h-32.4V190.2z M1095.9,127h39c17.2,0,25.9-5.1,25.9-15.6c0-9.9-7.1-15.4-24.4-15.4h-40.4V127z"/>
		<path class="st1" d="M1336.3,169.2h-67.7l-10.4,21.1h-32.1l60-118.7h33.6l60.2,118.7h-33.3L1336.3,169.2z M1279.2,147.6h46.4
			l-23-46.9h-0.4L1279.2,147.6z"/>
		<path class="st1" d="M1640.4,169.2h-67.7l-10.4,21.1h-32.1l60-118.7h33.6l60.2,118.7h-33.3L1640.4,169.2z M1583.4,147.6h46.4
			l-23-46.9h-0.4L1583.4,147.6z"/>
		<polygon class="st1" points="1670.7,72.1 1680.5,72.1 1680.5,74.6 1677.1,74.6 1677.1,84.3 1674,84.3 1674,74.6 1670.7,74.6 		"/>
		<path class="st1" d="M1695.3,72.1v12.3h-2.8v-7c0-0.1,0-0.2,0-0.4l-2.8,5.5c-0.1,0.2-0.3,0.4-0.5,0.5s-0.4,0.2-0.6,0.2h-0.4
			c-0.2,0-0.5-0.1-0.6-0.2s-0.3-0.3-0.5-0.5l-2.8-5.5c0,0.1,0,0.3,0,0.4v7h-2.8V72.1h2.6c0.1,0,0.2,0,0.3,0.1c0.1,0,0.2,0.1,0.2,0.2
			c0.1,0.1,0.1,0.2,0.2,0.3l3.1,6.1c0.1,0.2,0.2,0.4,0.3,0.7c0,0.1,0.1,0.2,0.1,0.3c0.1-0.1,0.1-0.2,0.2-0.4
			c0.1-0.2,0.2-0.5,0.3-0.7l3.1-6c0.1-0.1,0.1-0.2,0.2-0.3c0.1-0.1,0.2-0.1,0.3-0.2c0.1,0,0.2,0,0.3-0.1H1695.3z"/>
		<polygon class="st1" points="1390.3,97.2 1440.1,97.2 1440.1,190.2 1473,190.2 1473,97.2 1522.8,97.2 1522.8,71.7 1390.3,71.7 		
			"/>
		<polygon class="st1" points="891.8,97.2 941.5,97.2 941.5,190.2 974.5,190.2 974.5,97.2 1024.3,97.2 1024.3,71.7 891.8,71.7 		"/>
	</g>
</g>
</svg>
