<?xml version="1.0" encoding="utf-8"?>
<!-- Generator: Adobe Illustrator 25.1.0, SVG Export Plug-In . SVG Version: 6.00 Build 0)  -->
<svg version="1.1" id="Layer_1" xmlns="http://www.w3.org/2000/svg" xmlns:xlink="http://www.w3.org/1999/xlink" x="0px" y="0px"
	 viewBox="0 0 1215 239.3" style="enable-background:new 0 0 1215 239.3;" xml:space="preserve">
<style type="text/css">
	.st0{fill:#FFCB06;}
	.st1{fill:#FFFFFF;}
	.st2{fill:#808080;}
</style>
<g>
	<g>
		<g>
			<polygon class="st0" points="54.1,107 88.4,48.3 123.2,48.2 123.2,0 61.2,0.3 0,107.2 62.1,213.8 123.2,213.5 123.2,166.9 
				88.9,166.9 			"/>
			<polygon class="st0" points="192.5,107 158.1,166.9 123.2,166.9 123.2,48.2 157.7,48.2 			"/>
		</g>
		<path class="st1" d="M327.2,95.2c-27.7-4.1-33.8-7.2-33.8-13.4c0-6.2,7.8-11.4,26.3-11.4c14.5,0,29.5,3.6,42.7,9
			c3.4,1.3,6.5,2.8,9.6,4.2V56.4c-0.2-0.1-0.4-0.2-0.7-0.3c-14.5-6.2-29.9-9.5-50.1-9.5c-36.1,0-59.9,16.1-59.9,36.7
			c0,22.9,19.3,31,57.3,36.4c26.7,3.8,33.3,6.7,33.3,13.4c0,7.5-9.8,12.4-31.5,12.4c-14,0-30.6-3.9-44.9-9.6
			c-3.5-1.4-8.2-3.6-12-5.6v27.2c1.1,0.5,2.3,1,3.1,1.3c16.1,6.5,34.4,10.5,55.3,10.5c35.1,0,62.2-14.2,62.2-37.5
			C384.2,108.9,366.1,100.7,327.2,95.2z"/>
		<path class="st1" d="M615.6,167h-30.8V49H662c32.4,0,49.6,14.3,49.6,38.6c0,19.1-12.6,31.7-31,36.7l36.8,42.7h-35.2L648,126.6
			h-32.4V167z M615.6,103.7h39c17.2,0,25.9-5.1,25.9-15.6c0-9.9-7.1-15.4-24.4-15.4h-40.4V103.7z"/>
		<path class="st1" d="M855.9,145.9h-67.7L777.8,167h-32.1l60-118.7h33.6L899.7,167h-33.3L855.9,145.9z M798.9,124.3h46.4l-23-46.9
			h-0.4L798.9,124.3z"/>
		<path class="st1" d="M1160.1,145.9h-67.7L1082,167H1050l60-118.7h33.6l60.2,118.7h-33.3L1160.1,145.9z M1103.1,124.3h46.4
			l-23-46.9h-0.4L1103.1,124.3z"/>
		<polygon class="st1" points="1190.3,48.8 1200.1,48.8 1200.1,51.3 1196.8,51.3 1196.8,61.1 1193.7,61.1 1193.7,51.3 1190.3,51.3 
					"/>
		<path class="st1" d="M1215,48.8v12.3h-2.8v-7c0-0.1,0-0.2,0-0.4l-2.8,5.5c-0.1,0.2-0.3,0.4-0.5,0.5s-0.4,0.2-0.6,0.2h-0.4
			c-0.2,0-0.5-0.1-0.6-0.2c-0.2-0.1-0.3-0.3-0.5-0.5l-2.8-5.5c0,0.1,0,0.3,0,0.4v7h-2.8V48.8h2.6c0.1,0,0.2,0,0.3,0.1
			c0.1,0,0.2,0.1,0.2,0.2c0.1,0.1,0.1,0.2,0.2,0.3l3.1,6.1c0.1,0.2,0.2,0.4,0.3,0.7c0,0.1,0.1,0.2,0.1,0.3c0.1-0.1,0.1-0.2,0.2-0.4
			c0.1-0.2,0.2-0.5,0.3-0.7l3.1-6c0.1-0.1,0.1-0.2,0.2-0.3c0.1-0.1,0.2-0.1,0.3-0.2c0.1,0,0.2,0,0.3-0.1H1215z"/>
		<polygon class="st1" points="910,73.9 959.7,73.9 959.7,166.9 992.7,166.9 992.7,73.9 1042.5,73.9 1042.5,48.4 910,48.4 		"/>
		<polygon class="st1" points="411.4,73.9 461.2,73.9 461.2,166.9 494.2,166.9 494.2,73.9 544,73.9 544,48.4 411.4,48.4 		"/>
	</g>
	<g>
		<path class="st2" d="M263.3,216.3h14c4.6,0,7.5,1.9,7.5,5.6c0,2.5-1,4.2-3.8,5.1c2.9,1.1,4.2,2.6,4.2,5.3c0,4.6-3.5,6.3-8.4,6.3
			h-13.5V216.3z M275.6,225.2c1.8,0,2.6-0.6,2.6-2c0-1.3-0.8-1.9-2.6-1.9h-5.7v3.9H275.6z M275.9,233.5c2,0,2.7-0.6,2.7-2.1
			c0-1.4-0.8-2.1-2.7-2.1h-6v4.2L275.9,233.5z"/>
		<path class="st2" d="M298.7,231.5l-9.8-15.2h7.5l5.5,8.9h0.3l5.6-8.9h7.3l-9.7,15.1v7.2h-6.7V231.5z"/>
		<path class="st2" d="M332.6,216.3h13.2c5.5,0,8.4,3.2,8.4,8.3c0,5.8-3.7,8.5-8.9,8.5h-6v5.5h-6.7V216.3z M344.6,227.9
			c2.1,0,3-1.3,3-3.1c0-2-1-3.1-3-3.1h-5.2v6.2H344.6z"/>
		<path class="st2" d="M365,216.3h10.8l7.7,22.3h-7l-1.6-4.6h-9.2l-1.6,4.6h-6.9L365,216.3z M367.3,229h6l-2.4-7h-1.2L367.3,229z"/>
		<path class="st2" d="M389.4,216.3h6.7v16.5h11.8l-0.3,5.8h-18.2V216.3z"/>
		<path class="st2" d="M412.2,227.5c0-7.3,4.9-11.8,12.7-11.8c7.8,0,12.7,4.6,12.7,11.8s-4.9,11.8-12.7,11.8
			C417.2,239.3,412.2,234.7,412.2,227.5z M431.1,227.5c0-3.9-2.2-6.1-6.1-6.1s-6.1,2.3-6.1,6.1c0,3.9,2.2,6.1,6.1,6.1
			C428.8,233.6,431.1,231.3,431.1,227.5z"/>
		<path class="st2" d="M462.3,216.3H473l7.7,22.3h-7l-1.6-4.6H463l-1.6,4.6h-6.9L462.3,216.3z M464.6,229h6l-2.4-7H467L464.6,229z"
			/>
		<path class="st2" d="M486.6,216.3h6.7v16.5h11.8l-0.3,5.8h-18.2V216.3z"/>
		<path class="st2" d="M514.5,222h-7.8l0.3-5.7h21.8l0.3,5.7h-7.8v16.6h-6.7V222z"/>
		<path class="st2" d="M533.4,227.5c0-7.3,4.9-11.8,12.7-11.8c7.8,0,12.7,4.6,12.7,11.8s-4.9,11.8-12.7,11.8
			C538.3,239.3,533.4,234.7,533.4,227.5z M552.2,227.5c0-3.9-2.2-6.1-6.1-6.1s-6.1,2.3-6.1,6.1c0,3.9,2.2,6.1,6.1,6.1
			C549.9,233.6,552.2,231.3,552.2,227.5z"/>
		<path class="st2" d="M577.8,216.3h6.9l9.6,12.6h0.1v-12.6h6.4v22.3H594l-9.8-13h-0.1v13h-6.4V216.3z"/>
		<path class="st2" d="M608.7,216.3h19.5l0.3,5.4h-13.1v3.1h10.3v4.9h-10.3v3.5h13.5l-0.3,5.4h-19.9V216.3z"/>
		<path class="st2" d="M641.8,222H634l0.3-5.7h21.8l0.3,5.7h-7.8v16.6h-6.7V222z"/>
		<path class="st2" d="M661.2,216.3h7.1l3.6,15.5h0.4l4.7-15.5h6.5l4.6,15.5h0.4l3.6-15.5h6.8l-5.9,22.3h-8.8l-4.1-13.4H680
			l-4.1,13.4h-8.8L661.2,216.3z"/>
		<path class="st2" d="M703.3,227.5c0-7.3,4.9-11.8,12.7-11.8c7.8,0,12.7,4.6,12.7,11.8s-4.9,11.8-12.7,11.8
			C708.2,239.3,703.3,234.7,703.3,227.5z M722.1,227.5c0-3.9-2.2-6.1-6.1-6.1s-6.1,2.3-6.1,6.1c0,3.9,2.2,6.1,6.1,6.1
			C719.9,233.6,722.1,231.3,722.1,227.5z"/>
		<path class="st2" d="M735.5,216.3h13c5.9,0,8.8,2.8,8.8,8c0,3.6-1.5,6-4.3,7.1l5.3,7.2h-7.6l-4.1-5.9h-4.4v5.9h-6.7V216.3z
			 M747.6,227.5c2.2,0,3-1.2,3-2.9s-0.8-2.9-3-2.9h-5.4v5.8H747.6z"/>
		<path class="st2" d="M764.2,216.3h6.7v8.2h2.7l6.5-8.2h7.5l0,0l-8.5,10.7l9,11.6l0,0h-7.8l-6.8-8.6h-2.7v8.6h-6.7V216.3z"/>
		<path class="st2" d="M792.7,237.1V231h0c3.7,1.9,7.4,2.8,10.5,2.8c2.4,0,3.6-0.6,3.6-1.7c0-1.1-0.8-1.4-5.6-2.2
			c-5.2-0.8-8.7-2.4-8.7-6.9c0-4.2,3.7-7.4,10.8-7.4c2.9,0,5.9,0.6,8.6,1.8v6.1l0,0c-2.6-1.5-6.2-2.5-9.1-2.5
			c-2.5,0-3.6,0.6-3.6,1.6c0,1.3,1.6,1.4,5.5,2.1c5.2,0.9,8.7,2.4,8.7,7.1c0,3.7-2.7,7.3-10.6,7.3
			C799,239.2,795.9,238.4,792.7,237.1z"/>
	</g>
</g>
</svg>