<svg id="Layer_1" data-name="Layer 1" xmlns="http://www.w3.org/2000/svg" viewBox="0 0 1215.01 239.27"><defs><style>.cls-1{fill:#ffcb06;}.cls-2{fill:#fff;}.cls-3{fill:gray;}</style></defs><polygon class="cls-1" points="54.13 107.05 88.44 48.28 123.25 48.15 123.25 0 61.2 0.26 0 107.24 62.05 213.76 123.25 213.53 123.25 166.91 88.94 166.91 54.13 107.05"/><polygon class="cls-1" points="192.51 107.05 158.12 166.91 123.24 166.91 123.24 48.15 157.65 48.15 192.51 107.05"/><path class="cls-2" d="M327.24,95.16C299.5,91.08,293.46,88,293.46,81.78s7.84-11.41,26.28-11.41c14.51,0,29.53,3.59,42.74,9,3.44,1.32,6.54,2.78,9.64,4.25V56.43l-.65-.27C356.94,50,341.6,46.7,321.36,46.7c-36.06,0-59.89,16.15-59.89,36.71,0,22.86,19.27,31,57.29,36.39,26.75,3.76,33.29,6.69,33.29,13.38,0,7.52-9.79,12.41-31.5,12.41-14,0-30.64-3.86-44.89-9.63a131.82,131.82,0,0,1-12-5.62V157.5c1.13.49,2.26,1,3.07,1.3A145.62,145.62,0,0,0,322,169.25c35.09,0,62.18-14.19,62.18-37.53C384.19,108.88,366.07,100.7,327.24,95.16Z"/><path class="cls-2" d="M615.59,167H584.78V49H662c32.4,0,49.58,14.35,49.58,38.61,0,19.13-12.57,31.7-31,36.66L717.43,167H682.18L648,126.57H615.59Zm0-63.22h39c17.18,0,25.85-5.14,25.85-15.59,0-9.92-7.08-15.4-24.44-15.4H615.59Z"/><path class="cls-2" d="M855.92,145.88H788.27L777.82,167H745.76l60-118.65h33.65L899.66,167H866.37Zm-57-21.61h46.4l-23-46.93h-.35Z"/><path class="cls-2" d="M1160.12,145.88h-67.66L1082,167H1050L1110,48.3h33.65L1203.86,167h-33.3Zm-57-21.61h46.4l-23-46.93h-.36Z"/><polygon class="cls-2" points="1190.34 48.78 1200.15 48.78 1200.15 51.28 1196.78 51.28 1196.78 61.05 1193.7 61.05 1193.7 51.28 1190.34 51.28 1190.34 48.78"/><path class="cls-2" d="M1215,48.78V61.05h-2.75V54c0-.11,0-.23,0-.36l-2.84,5.5a1.1,1.1,0,0,1-.46.49,1.29,1.29,0,0,1-.65.17H1208a1.29,1.29,0,0,1-.65-.17,1.1,1.1,0,0,1-.46-.49L1204,53.62a2.75,2.75,0,0,1,0,.39v7h-2.76V48.78h2.6a2.11,2.11,0,0,1,.29.06,1,1,0,0,1,.44.45l3.08,6.06c.11.22.22.44.32.67s.1.22.15.34a2.75,2.75,0,0,0,.15-.36,7,7,0,0,1,.34-.67l3.07-6a1.21,1.21,0,0,1,.19-.28.85.85,0,0,1,.25-.17,1.84,1.84,0,0,1,.29-.06Z"/><polygon class="cls-2" points="909.96 73.89 959.74 73.89 959.74 166.92 992.71 166.92 992.71 73.89 1042.49 73.89 1042.49 48.45 909.96 48.45 909.96 73.89"/><polygon class="cls-2" points="411.43 73.89 461.22 73.89 461.22 166.92 494.18 166.92 494.18 73.89 543.96 73.89 543.96 48.45 411.43 48.45 411.43 73.89"/><path class="cls-3" d="M263.33,216.31h14.05c4.65,0,7.45,1.91,7.45,5.6a4.83,4.83,0,0,1-3.76,5.13c2.87,1.15,4.24,2.64,4.24,5.29,0,4.61-3.54,6.27-8.44,6.27H263.33Zm12.26,8.91c1.85,0,2.61-.57,2.61-2s-.82-1.91-2.61-1.91h-5.67v3.91Zm.32,8.32c2,0,2.74-.64,2.74-2.11s-.76-2.07-2.74-2.07h-6v4.21Z"/><path class="cls-3" d="M298.72,231.47,289,216.31h7.51l5.51,8.88h.32l5.57-8.88h7.33l-9.75,15.12v7.17h-6.72Z"/><path class="cls-3" d="M332.62,216.31h13.15c5.48,0,8.37,3.15,8.37,8.31,0,5.83-3.72,8.5-8.88,8.5h-6v5.48h-6.68Zm12,11.56a2.76,2.76,0,0,0,3-3.09c0-2-1-3.09-3-3.09H339.3v6.18Z"/><path class="cls-3" d="M365,216.31h10.77l7.73,22.29h-7L374.92,234h-9.21l-1.59,4.62h-6.88ZM367.34,229h6l-2.39-7h-1.21Z"/><path class="cls-3" d="M389.36,216.31H396v16.53h11.82l-.26,5.76H389.36Z"/><path class="cls-3" d="M412.23,227.45c0-7.26,4.94-11.81,12.74-11.81s12.74,4.55,12.74,11.81-4.94,11.82-12.74,11.82S412.23,234.71,412.23,227.45Zm18.82,0c0-3.85-2.22-6.14-6.08-6.14s-6.08,2.29-6.08,6.14,2.23,6.15,6.05,6.15S431.05,231.31,431.05,227.45Z"/><path class="cls-3" d="M462.27,216.31H473l7.74,22.29h-7L472.21,234H463l-1.59,4.62h-6.88ZM464.63,229h6l-2.39-7H467Z"/><path class="cls-3" d="M486.64,216.31h6.69v16.53h11.82l-.26,5.76H486.64Z"/><path class="cls-3" d="M514.49,222h-7.8l.25-5.73h21.82L529,222h-7.8V238.6h-6.72Z"/><path class="cls-3" d="M533.38,227.45c0-7.26,4.94-11.81,12.74-11.81s12.74,4.55,12.74,11.81-4.94,11.82-12.74,11.82S533.38,234.71,533.38,227.45Zm18.83,0c0-3.85-2.23-6.14-6.09-6.14S540,223.6,540,227.45s2.23,6.15,6.05,6.15S552.21,231.31,552.21,227.45Z"/><path class="cls-3" d="M577.75,216.31h7L594.28,229h.1V216.31h6.37V238.6H594l-9.81-13h-.1v13h-6.37Z"/><path class="cls-3" d="M608.69,216.31h19.49l.25,5.41H615.34v3.06h10.29v4.93H615.34v3.47h13.47l-.25,5.42H608.69Z"/><path class="cls-3" d="M641.85,222h-7.8l.25-5.73h21.82l.25,5.73h-7.8V238.6h-6.72Z"/><path class="cls-3" d="M661.22,216.31h7.14L672,231.78h.35l4.71-15.47h6.53l4.62,15.47h.35l3.56-15.47h6.82l-5.86,22.29h-8.76l-4.08-13.44H680L675.9,238.6h-8.79Z"/><path class="cls-3" d="M703.3,227.45c0-7.26,4.94-11.81,12.74-11.81s12.74,4.55,12.74,11.81-4.94,11.82-12.74,11.82S703.3,234.71,703.3,227.45Zm18.82,0c0-3.85-2.23-6.14-6.08-6.14S710,223.6,710,227.45s2.23,6.15,6,6.15S722.12,231.31,722.12,227.45Z"/><path class="cls-3" d="M735.48,216.31h13c5.92,0,8.82,2.8,8.82,8,0,3.57-1.46,6-4.33,7.13l5.29,7.17h-7.58l-4.11-5.86h-4.4v5.86h-6.68Zm12.13,11.21c2.23,0,3-1.25,3-2.93s-.79-2.9-3-2.9h-5.45v5.83Z"/><path class="cls-3" d="M764.18,216.31h6.69v8.21h2.74l6.52-8.21h7.52l0,0L779.15,227l9,11.56,0,0h-7.8L773.58,230h-2.71v8.57h-6.69Z"/><path class="cls-3" d="M792.69,237.13V231h0a23.77,23.77,0,0,0,10.5,2.8c2.39,0,3.6-.57,3.6-1.69s-.79-1.4-5.57-2.16c-5.22-.83-8.69-2.39-8.69-6.88,0-4.17,3.66-7.39,10.82-7.39a22.24,22.24,0,0,1,8.63,1.79v6l0,0a19.51,19.51,0,0,0-9.07-2.49c-2.55,0-3.57.61-3.57,1.63,0,1.3,1.56,1.43,5.48,2.1,5.22.89,8.69,2.36,8.69,7.07,0,3.66-2.74,7.32-10.6,7.32A26.53,26.53,0,0,1,792.69,237.13Z"/></svg>